M48
;DRILL file {KiCad 4.0.2-stable} date Monday, October 31, 2016 'PMt' 05:16:16 PM
;FORMAT={-:-/ absolute / inch / decimal}
FMAT,2
INCH,TZ
T1C0.013
T2C0.031
T3C0.039
T4C0.040
T5C0.047
T6C0.126
%
G90
G05
M72
T1
X5.54Y-3.99
X5.585Y-3.99
X5.625Y-3.61
X5.63Y-3.94
X5.63Y-3.99
X5.655Y-3.72
X5.675Y-3.89
X5.675Y-3.94
X5.675Y-3.99
X5.685Y-3.76
X5.685Y-3.825
X5.7Y-3.615
X5.7Y-3.665
X5.7Y-3.72
X5.7Y-4.275
X5.7Y-4.35
X5.7Y-4.425
X5.7Y-4.5
X5.7Y-4.55
X5.725Y-3.94
X5.725Y-3.99
X5.755Y-3.615
X5.755Y-3.665
X5.755Y-3.72
X5.77Y-3.99
X5.775Y-4.275
X5.775Y-4.35
X5.775Y-4.425
X5.775Y-4.5
X5.775Y-4.55
X5.83Y-3.83
X5.84Y-3.99
X5.85Y-4.275
X5.85Y-4.35
X5.85Y-4.425
X5.85Y-4.5
X5.85Y-4.55
X5.855Y-3.66
X5.86Y-3.735
X5.895Y-3.99
X5.9Y-3.605
X5.9Y-3.81
X5.9Y-3.86
X5.9Y-3.915
X5.92Y-4.22
X5.925Y-4.275
X5.925Y-4.35
X5.925Y-4.425
X5.925Y-4.5
X5.925Y-4.55
X5.96Y-3.735
X5.965Y-3.585
X5.965Y-3.66
X5.965Y-3.86
X5.965Y-3.915
X5.965Y-4.11
X5.965Y-4.17
X5.97Y-3.81
X5.975Y-3.53
X5.975Y-4.22
X6.Y-4.275
X6.Y-4.35
X6.Y-4.425
X6.Y-4.5
X6.Y-4.55
X6.035Y-3.585
X6.035Y-3.66
X6.035Y-3.735
X6.035Y-3.805
X6.035Y-3.86
X6.035Y-3.915
X6.04Y-3.415
X6.04Y-3.48
X6.045Y-3.34
X6.045Y-3.96
X6.045Y-4.015
X6.045Y-4.07
X6.045Y-4.11
X6.06Y-3.53
X6.075Y-4.275
X6.075Y-4.35
X6.075Y-4.425
X6.075Y-4.5
X6.075Y-4.55
X6.105Y-4.11
X6.11Y-3.485
X6.115Y-3.34
X6.115Y-3.415
X6.115Y-3.735
X6.115Y-3.805
X6.115Y-3.915
X6.12Y-3.59
X6.12Y-3.66
X6.12Y-3.86
X6.125Y-3.53
X6.125Y-4.25
X6.15Y-4.5
X6.15Y-4.55
X6.18Y-3.34
X6.18Y-3.415
X6.19Y-3.485
X6.195Y-3.86
X6.195Y-3.915
X6.2Y-4.1
X6.2Y-4.25
X6.21Y-3.99
X6.225Y-4.5
X6.225Y-4.55
X6.27Y-3.61
X6.275Y-3.99
X6.29Y-3.81
X6.29Y-3.87
X6.29Y-3.925
X6.3Y-3.76
X6.3Y-4.5
X6.3Y-4.55
X6.345Y-3.685
X6.345Y-3.925
X6.345Y-3.99
X6.35Y-3.635
X6.355Y-3.81
X6.355Y-3.87
X6.4Y-3.63
X6.4Y-3.685
X6.41Y-3.81
X6.41Y-3.87
X6.41Y-3.925
X6.41Y-3.99
T2
X6.1806Y-3.545
X6.2594Y-3.545
T3
X6.185Y-3.785
X6.4678Y-4.0678
T4
X6.145Y-4.355
X6.245Y-4.355
T5
X5.7101Y-3.357
X5.9699Y-3.357
T6
X5.47Y-4.5
X5.475Y-3.45
X6.49Y-4.5
X6.5Y-3.45
T0
M30
