G04 #@! TF.FileFunction,Copper,L1,Top,Signal*
%FSLAX46Y46*%
G04 Gerber Fmt 4.6, Leading zero omitted, Abs format (unit mm)*
G04 Created by KiCad (PCBNEW 4.0.2-stable) date Tuesday, November 15, 2016 'AMt' 11:42:37 AM*
%MOMM*%
G01*
G04 APERTURE LIST*
%ADD10C,0.100000*%
%ADD11R,1.198880X1.198880*%
%ADD12R,1.500000X1.300000*%
%ADD13R,1.300000X1.500000*%
%ADD14R,1.400000X0.300000*%
%ADD15R,2.032000X2.032000*%
%ADD16O,2.032000X2.032000*%
%ADD17R,1.350000X1.350000*%
%ADD18C,1.350000*%
%ADD19C,1.998980*%
%ADD20R,1.500000X1.250000*%
%ADD21C,1.500000*%
%ADD22R,0.400000X1.350000*%
%ADD23R,1.600000X1.400000*%
%ADD24R,1.900000X1.900000*%
%ADD25C,1.600000*%
%ADD26C,0.685800*%
%ADD27C,0.152400*%
%ADD28C,0.398780*%
G04 APERTURE END LIST*
D10*
D11*
X140809980Y-103505000D03*
X142908020Y-103505000D03*
X140809980Y-106045000D03*
X142908020Y-106045000D03*
D12*
X142828000Y-98679000D03*
X140128000Y-98679000D03*
X142828000Y-95885000D03*
X140128000Y-95885000D03*
X142828000Y-93091000D03*
X140128000Y-93091000D03*
X145335000Y-103505000D03*
X148035000Y-103505000D03*
X145335000Y-106045000D03*
X148035000Y-106045000D03*
D13*
X159258000Y-104441000D03*
X159258000Y-107141000D03*
D12*
X156036000Y-105918000D03*
X153336000Y-105918000D03*
D14*
X151470000Y-101235000D03*
X151470000Y-101735000D03*
X151470000Y-102235000D03*
X151470000Y-102735000D03*
X151470000Y-103235000D03*
X155870000Y-103235000D03*
X155870000Y-102735000D03*
X155870000Y-102235000D03*
X155870000Y-101735000D03*
X155870000Y-101235000D03*
D15*
X158623000Y-110617000D03*
D16*
X156083000Y-110617000D03*
D17*
X158988000Y-90043000D03*
D18*
X156988000Y-90043000D03*
D19*
X157099000Y-96139000D03*
X164283205Y-103323205D03*
D20*
X145562000Y-98679000D03*
X148062000Y-98679000D03*
X159365000Y-93218000D03*
X156865000Y-93218000D03*
D21*
X145796000Y-96266000D03*
X161925000Y-95250000D03*
X164846000Y-106680000D03*
D22*
X148336000Y-87942800D03*
X147686000Y-87942800D03*
X147036000Y-87942800D03*
X148986000Y-87942800D03*
X149636000Y-87942800D03*
D23*
X151536000Y-87717800D03*
X145136000Y-87717800D03*
D24*
X149536000Y-85267800D03*
X147136000Y-85267800D03*
D25*
X151636000Y-85267800D03*
X145036000Y-85267800D03*
D26*
X143637000Y-94488000D03*
X144399000Y-95504000D03*
X144399000Y-97155000D03*
X144145000Y-98806000D03*
X140716000Y-101346000D03*
X141859000Y-101346000D03*
X143002000Y-100076000D03*
X143002000Y-101346000D03*
X144145000Y-101346000D03*
X144145000Y-100076000D03*
X145415000Y-100076000D03*
X145415000Y-101346000D03*
X146558000Y-101346000D03*
X148336000Y-101346000D03*
X149733000Y-101346000D03*
X142875000Y-91694000D03*
X144780000Y-91821000D03*
X146177000Y-91821000D03*
X146177000Y-93091000D03*
X144780000Y-93091000D03*
X144780000Y-94488000D03*
X146177000Y-94488000D03*
X153289000Y-99441000D03*
X155321000Y-99441000D03*
X157353000Y-99441000D03*
X157353000Y-98044000D03*
X155448000Y-98044000D03*
X153289000Y-98044000D03*
X151511000Y-98044000D03*
X149860000Y-98044000D03*
X148082000Y-97282000D03*
X149860000Y-96774000D03*
X151638000Y-96774000D03*
X153289000Y-96647000D03*
X155321000Y-96647000D03*
X155321000Y-94869000D03*
X153289000Y-94869000D03*
X151384000Y-94869000D03*
X148844000Y-94869000D03*
X148717000Y-92964000D03*
X151511000Y-92964000D03*
X153289000Y-92964000D03*
X155448000Y-92964000D03*
X155448000Y-91186000D03*
X153289000Y-91059000D03*
X151511000Y-91059000D03*
X149860000Y-91567000D03*
X151765000Y-89662000D03*
X153924000Y-89662000D03*
X155575000Y-89662000D03*
X157226000Y-88519000D03*
X155194000Y-88519000D03*
X153416000Y-88392000D03*
X153416000Y-86741000D03*
X155321000Y-86741000D03*
X156972000Y-86741000D03*
X156972000Y-84836000D03*
X155321000Y-84836000D03*
X153543000Y-84836000D03*
X157480000Y-104140000D03*
X157480000Y-107950000D03*
X155575000Y-107950000D03*
X154305000Y-108585000D03*
X152400000Y-108585000D03*
X144780000Y-115570000D03*
X146685000Y-115570000D03*
X148590000Y-115570000D03*
X150495000Y-115570000D03*
X152400000Y-115570000D03*
X154305000Y-115570000D03*
X156210000Y-115570000D03*
X158115000Y-115570000D03*
X160020000Y-115570000D03*
X160020000Y-114300000D03*
X158115000Y-114300000D03*
X156210000Y-114300000D03*
X154305000Y-114300000D03*
X152400000Y-114300000D03*
X150495000Y-114300000D03*
X148590000Y-114300000D03*
X146685000Y-114300000D03*
X144780000Y-114300000D03*
X144780000Y-112395000D03*
X146685000Y-112395000D03*
X148590000Y-112395000D03*
X150495000Y-112395000D03*
X152400000Y-112395000D03*
X154305000Y-112395000D03*
X154305000Y-110490000D03*
X152400000Y-110490000D03*
X150495000Y-110490000D03*
X148590000Y-110490000D03*
X146685000Y-110490000D03*
X144780000Y-110490000D03*
X144780000Y-108585000D03*
X146685000Y-108585000D03*
X148590000Y-108585000D03*
X150495000Y-108585000D03*
X151765000Y-107188000D03*
X150368000Y-107188000D03*
X151511000Y-105918000D03*
X151511000Y-104394000D03*
X153543000Y-104394000D03*
X155067000Y-104394000D03*
X153543000Y-103378000D03*
X153543000Y-101981000D03*
X153543000Y-100584000D03*
X151511000Y-99441000D03*
X149860000Y-99441000D03*
X159258000Y-91694000D03*
X161290000Y-92329000D03*
X162560000Y-92202000D03*
X162560000Y-93599000D03*
X161163000Y-93599000D03*
X160020000Y-95504000D03*
X159766000Y-96774000D03*
X161417000Y-96774000D03*
X162814000Y-96774000D03*
X162814000Y-98298000D03*
X161417000Y-98298000D03*
X159766000Y-98298000D03*
X159766000Y-99695000D03*
X161163000Y-99695000D03*
X162814000Y-99695000D03*
X162814000Y-101346000D03*
X161163000Y-101346000D03*
X159385000Y-101346000D03*
X157734000Y-101346000D03*
D27*
X144145000Y-100076000D02*
X144145000Y-98806000D01*
X144399000Y-97155000D02*
X144399000Y-95504000D01*
X143002000Y-101346000D02*
X141859000Y-101346000D01*
X151470000Y-101235000D02*
X149844000Y-101235000D01*
X143002000Y-101346000D02*
X143002000Y-100076000D01*
X144145000Y-100076000D02*
X144145000Y-101346000D01*
X145415000Y-101346000D02*
X145415000Y-100076000D01*
X148336000Y-101346000D02*
X146558000Y-101346000D01*
X149844000Y-101235000D02*
X149733000Y-101346000D01*
X145796000Y-96266000D02*
X145796000Y-94869000D01*
X144653000Y-91694000D02*
X142875000Y-91694000D01*
X144780000Y-91821000D02*
X144653000Y-91694000D01*
X146177000Y-93091000D02*
X146177000Y-91821000D01*
X144780000Y-94488000D02*
X144780000Y-93091000D01*
X145796000Y-94869000D02*
X146177000Y-94488000D01*
D28*
X149636000Y-87942800D02*
X149918800Y-87942800D01*
X150241000Y-88900000D02*
X146431000Y-92710000D01*
X150241000Y-88265000D02*
X150241000Y-88900000D01*
X149918800Y-87942800D02*
X150241000Y-88265000D01*
X149636000Y-87942800D02*
X149636000Y-88743000D01*
X145288000Y-93091000D02*
X142828000Y-93091000D01*
X149636000Y-88743000D02*
X145288000Y-93091000D01*
D27*
X142828000Y-98599000D02*
X142828000Y-98679000D01*
X142828000Y-95885000D02*
X142828000Y-95297000D01*
X155321000Y-99441000D02*
X157353000Y-99441000D01*
X157353000Y-98044000D02*
X155448000Y-98044000D01*
X153289000Y-98044000D02*
X151511000Y-98044000D01*
X149860000Y-98044000D02*
X149098000Y-97282000D01*
X149098000Y-97282000D02*
X148082000Y-97282000D01*
X149860000Y-96774000D02*
X151638000Y-96774000D01*
X153289000Y-96647000D02*
X155321000Y-96647000D01*
X155321000Y-94869000D02*
X153289000Y-94869000D01*
X151384000Y-94869000D02*
X148844000Y-94869000D01*
X148717000Y-92964000D02*
X151511000Y-92964000D01*
X153289000Y-92964000D02*
X155448000Y-92964000D01*
X155448000Y-91186000D02*
X155321000Y-91059000D01*
X155321000Y-91059000D02*
X153289000Y-91059000D01*
X151511000Y-91059000D02*
X151003000Y-91567000D01*
X151003000Y-91567000D02*
X149860000Y-91567000D01*
X151765000Y-89662000D02*
X153924000Y-89662000D01*
X155575000Y-89662000D02*
X156718000Y-88519000D01*
X156718000Y-88519000D02*
X157226000Y-88519000D01*
X155194000Y-88519000D02*
X155067000Y-88392000D01*
X155067000Y-88392000D02*
X153416000Y-88392000D01*
X153416000Y-86741000D02*
X155321000Y-86741000D01*
X156972000Y-86741000D02*
X156972000Y-84836000D01*
X155321000Y-84836000D02*
X153543000Y-84836000D01*
X150495000Y-108585000D02*
X152400000Y-108585000D01*
X157480000Y-107950000D02*
X157480000Y-104140000D01*
X154940000Y-107950000D02*
X155575000Y-107950000D01*
X154305000Y-108585000D02*
X154940000Y-107950000D01*
X150368000Y-107188000D02*
X150368000Y-108458000D01*
X148590000Y-115570000D02*
X146685000Y-115570000D01*
X152400000Y-115570000D02*
X150495000Y-115570000D01*
X156210000Y-115570000D02*
X154305000Y-115570000D01*
X160020000Y-115570000D02*
X158115000Y-115570000D01*
X158115000Y-114300000D02*
X160020000Y-114300000D01*
X154305000Y-114300000D02*
X156210000Y-114300000D01*
X150495000Y-114300000D02*
X152400000Y-114300000D01*
X146685000Y-114300000D02*
X148590000Y-114300000D01*
X144780000Y-112395000D02*
X144780000Y-114300000D01*
X148590000Y-112395000D02*
X146685000Y-112395000D01*
X152400000Y-112395000D02*
X150495000Y-112395000D01*
X154305000Y-110490000D02*
X154305000Y-112395000D01*
X150495000Y-110490000D02*
X152400000Y-110490000D01*
X146685000Y-110490000D02*
X148590000Y-110490000D01*
X144780000Y-108585000D02*
X144780000Y-110490000D01*
X148590000Y-108585000D02*
X146685000Y-108585000D01*
X150368000Y-108458000D02*
X150495000Y-108585000D01*
X153289000Y-99441000D02*
X153289000Y-100330000D01*
X150368000Y-107188000D02*
X151765000Y-107188000D01*
X151511000Y-104394000D02*
X151511000Y-105918000D01*
X155067000Y-104394000D02*
X153543000Y-104394000D01*
X153543000Y-101981000D02*
X153543000Y-103378000D01*
X153289000Y-100330000D02*
X153543000Y-100584000D01*
X148062000Y-98679000D02*
X149098000Y-98679000D01*
X151511000Y-99441000D02*
X153289000Y-99441000D01*
X149098000Y-98679000D02*
X149860000Y-99441000D01*
X155870000Y-101235000D02*
X157623000Y-101235000D01*
X160655000Y-91694000D02*
X159258000Y-91694000D01*
X161290000Y-92329000D02*
X160655000Y-91694000D01*
X162560000Y-93599000D02*
X162560000Y-92202000D01*
X161163000Y-94361000D02*
X161163000Y-93599000D01*
X160020000Y-95504000D02*
X161163000Y-94361000D01*
X161417000Y-96774000D02*
X159766000Y-96774000D01*
X162814000Y-98298000D02*
X162814000Y-96774000D01*
X159766000Y-98298000D02*
X161417000Y-98298000D01*
X161163000Y-99695000D02*
X159766000Y-99695000D01*
X162814000Y-101346000D02*
X162814000Y-99695000D01*
X159385000Y-101346000D02*
X161163000Y-101346000D01*
X157623000Y-101235000D02*
X157734000Y-101346000D01*
X145335000Y-103505000D02*
X142908020Y-103505000D01*
X145335000Y-106045000D02*
X142908020Y-106045000D01*
X148986000Y-87942800D02*
X148986000Y-88605600D01*
X148986000Y-88605600D02*
X147396200Y-90195400D01*
X147396200Y-90195400D02*
X142494000Y-90195400D01*
X142494000Y-90195400D02*
X141579600Y-91109800D01*
X141579600Y-91109800D02*
X141579600Y-97227400D01*
X141579600Y-97227400D02*
X140128000Y-98679000D01*
X148336000Y-87942800D02*
X148336000Y-88722200D01*
X141249400Y-94763600D02*
X140128000Y-95885000D01*
X141249400Y-90982800D02*
X141249400Y-94763600D01*
X142367000Y-89865200D02*
X141249400Y-90982800D01*
X147193000Y-89865200D02*
X142367000Y-89865200D01*
X148336000Y-88722200D02*
X147193000Y-89865200D01*
X147686000Y-87942800D02*
X147686000Y-88788000D01*
X140128000Y-91647000D02*
X140128000Y-93091000D01*
X142240000Y-89535000D02*
X140128000Y-91647000D01*
X146939000Y-89535000D02*
X142240000Y-89535000D01*
X147686000Y-88788000D02*
X146939000Y-89535000D01*
X151470000Y-102235000D02*
X149305000Y-102235000D01*
X149305000Y-102235000D02*
X148035000Y-103505000D01*
X148670000Y-103378000D02*
X148717000Y-103378000D01*
X151470000Y-102735000D02*
X150376000Y-102735000D01*
X149606000Y-104474000D02*
X148035000Y-106045000D01*
X149606000Y-103505000D02*
X149606000Y-104474000D01*
X150376000Y-102735000D02*
X149606000Y-103505000D01*
X148670000Y-105918000D02*
X148670000Y-105711000D01*
X156036000Y-105918000D02*
X156036000Y-103401000D01*
X156036000Y-103401000D02*
X155870000Y-103235000D01*
X159258000Y-107141000D02*
X159258000Y-109982000D01*
X159258000Y-109982000D02*
X158623000Y-110617000D01*
X159258000Y-104441000D02*
X159305000Y-104441000D01*
X159305000Y-104441000D02*
X161544000Y-106680000D01*
X161544000Y-106680000D02*
X164846000Y-106680000D01*
X155870000Y-102735000D02*
X157552000Y-102735000D01*
X157552000Y-102735000D02*
X159258000Y-104441000D01*
X155870000Y-102235000D02*
X157657800Y-102235000D01*
X158746005Y-103323205D02*
X164283205Y-103323205D01*
X157657800Y-102235000D02*
X158746005Y-103323205D01*
G36*
X146836735Y-96951800D02*
X146710400Y-96951800D01*
X146680754Y-96957803D01*
X146655779Y-96974868D01*
X146639411Y-97000305D01*
X146634200Y-97028000D01*
X146634200Y-100736400D01*
X146640203Y-100766046D01*
X146657268Y-100791021D01*
X146682705Y-100807389D01*
X146710400Y-100812600D01*
X152326129Y-100812600D01*
X152425400Y-100878781D01*
X152425400Y-101930200D01*
X152398600Y-101930200D01*
X152398600Y-101867150D01*
X152341450Y-101810000D01*
X151647800Y-101810000D01*
X151647800Y-101851922D01*
X151292200Y-101851922D01*
X151292200Y-101810000D01*
X150598550Y-101810000D01*
X150541400Y-101867150D01*
X150541400Y-101930200D01*
X141732000Y-101930200D01*
X141702354Y-101936203D01*
X141677379Y-101953268D01*
X141661011Y-101978705D01*
X141655800Y-102006400D01*
X141655800Y-107010200D01*
X139928600Y-107010200D01*
X139928600Y-106279950D01*
X139981940Y-106279950D01*
X139981940Y-106689912D01*
X140016743Y-106773932D01*
X140081049Y-106838238D01*
X140165069Y-106873040D01*
X140575030Y-106873040D01*
X140632180Y-106815890D01*
X140632180Y-106222800D01*
X140987780Y-106222800D01*
X140987780Y-106815890D01*
X141044930Y-106873040D01*
X141454891Y-106873040D01*
X141538911Y-106838238D01*
X141603217Y-106773932D01*
X141638020Y-106689912D01*
X141638020Y-106279950D01*
X141580870Y-106222800D01*
X140987780Y-106222800D01*
X140632180Y-106222800D01*
X140039090Y-106222800D01*
X139981940Y-106279950D01*
X139928600Y-106279950D01*
X139928600Y-105400088D01*
X139981940Y-105400088D01*
X139981940Y-105810050D01*
X140039090Y-105867200D01*
X140632180Y-105867200D01*
X140632180Y-105274110D01*
X140987780Y-105274110D01*
X140987780Y-105867200D01*
X141580870Y-105867200D01*
X141638020Y-105810050D01*
X141638020Y-105400088D01*
X141603217Y-105316068D01*
X141538911Y-105251762D01*
X141454891Y-105216960D01*
X141044930Y-105216960D01*
X140987780Y-105274110D01*
X140632180Y-105274110D01*
X140575030Y-105216960D01*
X140165069Y-105216960D01*
X140081049Y-105251762D01*
X140016743Y-105316068D01*
X139981940Y-105400088D01*
X139928600Y-105400088D01*
X139928600Y-103739950D01*
X139981940Y-103739950D01*
X139981940Y-104149912D01*
X140016743Y-104233932D01*
X140081049Y-104298238D01*
X140165069Y-104333040D01*
X140575030Y-104333040D01*
X140632180Y-104275890D01*
X140632180Y-103682800D01*
X140987780Y-103682800D01*
X140987780Y-104275890D01*
X141044930Y-104333040D01*
X141454891Y-104333040D01*
X141538911Y-104298238D01*
X141603217Y-104233932D01*
X141638020Y-104149912D01*
X141638020Y-103739950D01*
X141580870Y-103682800D01*
X140987780Y-103682800D01*
X140632180Y-103682800D01*
X140039090Y-103682800D01*
X139981940Y-103739950D01*
X139928600Y-103739950D01*
X139928600Y-102860088D01*
X139981940Y-102860088D01*
X139981940Y-103270050D01*
X140039090Y-103327200D01*
X140632180Y-103327200D01*
X140632180Y-102734110D01*
X140987780Y-102734110D01*
X140987780Y-103327200D01*
X141580870Y-103327200D01*
X141638020Y-103270050D01*
X141638020Y-102860088D01*
X141603217Y-102776068D01*
X141538911Y-102711762D01*
X141454891Y-102676960D01*
X141044930Y-102676960D01*
X140987780Y-102734110D01*
X140632180Y-102734110D01*
X140575030Y-102676960D01*
X140165069Y-102676960D01*
X140081049Y-102711762D01*
X140016743Y-102776068D01*
X139981940Y-102860088D01*
X139928600Y-102860088D01*
X139928600Y-101367150D01*
X150541400Y-101367150D01*
X150541400Y-101430472D01*
X150563987Y-101485000D01*
X150541400Y-101539528D01*
X150541400Y-101602850D01*
X150598550Y-101660000D01*
X151292200Y-101660000D01*
X151292200Y-101310000D01*
X151647800Y-101310000D01*
X151647800Y-101660000D01*
X152341450Y-101660000D01*
X152398600Y-101602850D01*
X152398600Y-101539528D01*
X152376013Y-101485000D01*
X152398600Y-101430472D01*
X152398600Y-101367150D01*
X152341450Y-101310000D01*
X151647800Y-101310000D01*
X151292200Y-101310000D01*
X150598550Y-101310000D01*
X150541400Y-101367150D01*
X139928600Y-101367150D01*
X139928600Y-101039528D01*
X150541400Y-101039528D01*
X150541400Y-101102850D01*
X150598550Y-101160000D01*
X151292200Y-101160000D01*
X151292200Y-100913550D01*
X151647800Y-100913550D01*
X151647800Y-101160000D01*
X152341450Y-101160000D01*
X152398600Y-101102850D01*
X152398600Y-101039528D01*
X152363797Y-100955508D01*
X152299491Y-100891202D01*
X152215471Y-100856400D01*
X151704950Y-100856400D01*
X151647800Y-100913550D01*
X151292200Y-100913550D01*
X151235050Y-100856400D01*
X150724529Y-100856400D01*
X150640509Y-100891202D01*
X150576203Y-100955508D01*
X150541400Y-101039528D01*
X139928600Y-101039528D01*
X139928600Y-100965000D01*
X141833600Y-100965000D01*
X141863246Y-100958997D01*
X141888221Y-100941932D01*
X141904589Y-100916495D01*
X141909799Y-100888401D01*
X141902408Y-99476697D01*
X141948509Y-99522798D01*
X142032529Y-99557600D01*
X142593050Y-99557600D01*
X142650200Y-99500450D01*
X142650200Y-98856800D01*
X143005800Y-98856800D01*
X143005800Y-99500450D01*
X143062950Y-99557600D01*
X143623471Y-99557600D01*
X143707491Y-99522798D01*
X143771797Y-99458492D01*
X143806600Y-99374472D01*
X143806600Y-98913950D01*
X144583400Y-98913950D01*
X144583400Y-99349472D01*
X144618203Y-99433492D01*
X144682509Y-99497798D01*
X144766529Y-99532600D01*
X145327050Y-99532600D01*
X145384200Y-99475450D01*
X145384200Y-98856800D01*
X145739800Y-98856800D01*
X145739800Y-99475450D01*
X145796950Y-99532600D01*
X146357471Y-99532600D01*
X146441491Y-99497798D01*
X146505797Y-99433492D01*
X146540600Y-99349472D01*
X146540600Y-98913950D01*
X146483450Y-98856800D01*
X145739800Y-98856800D01*
X145384200Y-98856800D01*
X144640550Y-98856800D01*
X144583400Y-98913950D01*
X143806600Y-98913950D01*
X143749450Y-98856800D01*
X143005800Y-98856800D01*
X142650200Y-98856800D01*
X142630200Y-98856800D01*
X142630200Y-98501200D01*
X142650200Y-98501200D01*
X142650200Y-97857550D01*
X143005800Y-97857550D01*
X143005800Y-98501200D01*
X143749450Y-98501200D01*
X143806600Y-98444050D01*
X143806600Y-98008528D01*
X144583400Y-98008528D01*
X144583400Y-98444050D01*
X144640550Y-98501200D01*
X145384200Y-98501200D01*
X145384200Y-97882550D01*
X145739800Y-97882550D01*
X145739800Y-98501200D01*
X146483450Y-98501200D01*
X146540600Y-98444050D01*
X146540600Y-98008528D01*
X146505797Y-97924508D01*
X146441491Y-97860202D01*
X146357471Y-97825400D01*
X145796950Y-97825400D01*
X145739800Y-97882550D01*
X145384200Y-97882550D01*
X145327050Y-97825400D01*
X144766529Y-97825400D01*
X144682509Y-97860202D01*
X144618203Y-97924508D01*
X144583400Y-98008528D01*
X143806600Y-98008528D01*
X143806600Y-97983528D01*
X143771797Y-97899508D01*
X143707491Y-97835202D01*
X143623471Y-97800400D01*
X143062950Y-97800400D01*
X143005800Y-97857550D01*
X142650200Y-97857550D01*
X142593050Y-97800400D01*
X142032529Y-97800400D01*
X141948509Y-97835202D01*
X141894099Y-97889612D01*
X141889677Y-97044853D01*
X145268594Y-97044853D01*
X145362755Y-97164803D01*
X145739691Y-97262181D01*
X146125199Y-97207900D01*
X146229245Y-97164803D01*
X146323406Y-97044853D01*
X145796000Y-96517447D01*
X145268594Y-97044853D01*
X141889677Y-97044853D01*
X141887703Y-96667992D01*
X141948509Y-96728798D01*
X142032529Y-96763600D01*
X142593050Y-96763600D01*
X142650200Y-96706450D01*
X142650200Y-96062800D01*
X143005800Y-96062800D01*
X143005800Y-96706450D01*
X143062950Y-96763600D01*
X143623471Y-96763600D01*
X143707491Y-96728798D01*
X143771797Y-96664492D01*
X143806600Y-96580472D01*
X143806600Y-96209691D01*
X144799819Y-96209691D01*
X144854100Y-96595199D01*
X144897197Y-96699245D01*
X145017147Y-96793406D01*
X145544553Y-96266000D01*
X146047447Y-96266000D01*
X146574853Y-96793406D01*
X146694803Y-96699245D01*
X146792181Y-96322309D01*
X146737900Y-95936801D01*
X146694803Y-95832755D01*
X146574853Y-95738594D01*
X146047447Y-96266000D01*
X145544553Y-96266000D01*
X145017147Y-95738594D01*
X144897197Y-95832755D01*
X144799819Y-96209691D01*
X143806600Y-96209691D01*
X143806600Y-96119950D01*
X143749450Y-96062800D01*
X143005800Y-96062800D01*
X142650200Y-96062800D01*
X142630200Y-96062800D01*
X142630200Y-95707200D01*
X142650200Y-95707200D01*
X142650200Y-95063550D01*
X143005800Y-95063550D01*
X143005800Y-95707200D01*
X143749450Y-95707200D01*
X143806600Y-95650050D01*
X143806600Y-95487147D01*
X145268594Y-95487147D01*
X145796000Y-96014553D01*
X146323406Y-95487147D01*
X146229245Y-95367197D01*
X145852309Y-95269819D01*
X145466801Y-95324100D01*
X145362755Y-95367197D01*
X145268594Y-95487147D01*
X143806600Y-95487147D01*
X143806600Y-95189528D01*
X143771797Y-95105508D01*
X143707491Y-95041202D01*
X143623471Y-95006400D01*
X143062950Y-95006400D01*
X143005800Y-95063550D01*
X142650200Y-95063550D01*
X142593050Y-95006400D01*
X142032529Y-95006400D01*
X141948509Y-95041202D01*
X141884400Y-95105311D01*
X141884400Y-93870689D01*
X141948509Y-93934798D01*
X142032529Y-93969600D01*
X142593050Y-93969600D01*
X142650200Y-93912450D01*
X142650200Y-93268800D01*
X143005800Y-93268800D01*
X143005800Y-93912450D01*
X143062950Y-93969600D01*
X143623471Y-93969600D01*
X143707491Y-93934798D01*
X143771797Y-93870492D01*
X143806600Y-93786472D01*
X143806600Y-93325950D01*
X143749450Y-93268800D01*
X143005800Y-93268800D01*
X142650200Y-93268800D01*
X142630200Y-93268800D01*
X142630200Y-92913200D01*
X142650200Y-92913200D01*
X142650200Y-92269550D01*
X143005800Y-92269550D01*
X143005800Y-92913200D01*
X143749450Y-92913200D01*
X143806600Y-92856050D01*
X143806600Y-92395528D01*
X143771797Y-92311508D01*
X143707491Y-92247202D01*
X143623471Y-92212400D01*
X143062950Y-92212400D01*
X143005800Y-92269550D01*
X142650200Y-92269550D01*
X142593050Y-92212400D01*
X142032529Y-92212400D01*
X141948509Y-92247202D01*
X141884400Y-92311311D01*
X141884400Y-91262200D01*
X146787260Y-91262200D01*
X146836735Y-96951800D01*
X146836735Y-96951800D01*
G37*
X146836735Y-96951800D02*
X146710400Y-96951800D01*
X146680754Y-96957803D01*
X146655779Y-96974868D01*
X146639411Y-97000305D01*
X146634200Y-97028000D01*
X146634200Y-100736400D01*
X146640203Y-100766046D01*
X146657268Y-100791021D01*
X146682705Y-100807389D01*
X146710400Y-100812600D01*
X152326129Y-100812600D01*
X152425400Y-100878781D01*
X152425400Y-101930200D01*
X152398600Y-101930200D01*
X152398600Y-101867150D01*
X152341450Y-101810000D01*
X151647800Y-101810000D01*
X151647800Y-101851922D01*
X151292200Y-101851922D01*
X151292200Y-101810000D01*
X150598550Y-101810000D01*
X150541400Y-101867150D01*
X150541400Y-101930200D01*
X141732000Y-101930200D01*
X141702354Y-101936203D01*
X141677379Y-101953268D01*
X141661011Y-101978705D01*
X141655800Y-102006400D01*
X141655800Y-107010200D01*
X139928600Y-107010200D01*
X139928600Y-106279950D01*
X139981940Y-106279950D01*
X139981940Y-106689912D01*
X140016743Y-106773932D01*
X140081049Y-106838238D01*
X140165069Y-106873040D01*
X140575030Y-106873040D01*
X140632180Y-106815890D01*
X140632180Y-106222800D01*
X140987780Y-106222800D01*
X140987780Y-106815890D01*
X141044930Y-106873040D01*
X141454891Y-106873040D01*
X141538911Y-106838238D01*
X141603217Y-106773932D01*
X141638020Y-106689912D01*
X141638020Y-106279950D01*
X141580870Y-106222800D01*
X140987780Y-106222800D01*
X140632180Y-106222800D01*
X140039090Y-106222800D01*
X139981940Y-106279950D01*
X139928600Y-106279950D01*
X139928600Y-105400088D01*
X139981940Y-105400088D01*
X139981940Y-105810050D01*
X140039090Y-105867200D01*
X140632180Y-105867200D01*
X140632180Y-105274110D01*
X140987780Y-105274110D01*
X140987780Y-105867200D01*
X141580870Y-105867200D01*
X141638020Y-105810050D01*
X141638020Y-105400088D01*
X141603217Y-105316068D01*
X141538911Y-105251762D01*
X141454891Y-105216960D01*
X141044930Y-105216960D01*
X140987780Y-105274110D01*
X140632180Y-105274110D01*
X140575030Y-105216960D01*
X140165069Y-105216960D01*
X140081049Y-105251762D01*
X140016743Y-105316068D01*
X139981940Y-105400088D01*
X139928600Y-105400088D01*
X139928600Y-103739950D01*
X139981940Y-103739950D01*
X139981940Y-104149912D01*
X140016743Y-104233932D01*
X140081049Y-104298238D01*
X140165069Y-104333040D01*
X140575030Y-104333040D01*
X140632180Y-104275890D01*
X140632180Y-103682800D01*
X140987780Y-103682800D01*
X140987780Y-104275890D01*
X141044930Y-104333040D01*
X141454891Y-104333040D01*
X141538911Y-104298238D01*
X141603217Y-104233932D01*
X141638020Y-104149912D01*
X141638020Y-103739950D01*
X141580870Y-103682800D01*
X140987780Y-103682800D01*
X140632180Y-103682800D01*
X140039090Y-103682800D01*
X139981940Y-103739950D01*
X139928600Y-103739950D01*
X139928600Y-102860088D01*
X139981940Y-102860088D01*
X139981940Y-103270050D01*
X140039090Y-103327200D01*
X140632180Y-103327200D01*
X140632180Y-102734110D01*
X140987780Y-102734110D01*
X140987780Y-103327200D01*
X141580870Y-103327200D01*
X141638020Y-103270050D01*
X141638020Y-102860088D01*
X141603217Y-102776068D01*
X141538911Y-102711762D01*
X141454891Y-102676960D01*
X141044930Y-102676960D01*
X140987780Y-102734110D01*
X140632180Y-102734110D01*
X140575030Y-102676960D01*
X140165069Y-102676960D01*
X140081049Y-102711762D01*
X140016743Y-102776068D01*
X139981940Y-102860088D01*
X139928600Y-102860088D01*
X139928600Y-101367150D01*
X150541400Y-101367150D01*
X150541400Y-101430472D01*
X150563987Y-101485000D01*
X150541400Y-101539528D01*
X150541400Y-101602850D01*
X150598550Y-101660000D01*
X151292200Y-101660000D01*
X151292200Y-101310000D01*
X151647800Y-101310000D01*
X151647800Y-101660000D01*
X152341450Y-101660000D01*
X152398600Y-101602850D01*
X152398600Y-101539528D01*
X152376013Y-101485000D01*
X152398600Y-101430472D01*
X152398600Y-101367150D01*
X152341450Y-101310000D01*
X151647800Y-101310000D01*
X151292200Y-101310000D01*
X150598550Y-101310000D01*
X150541400Y-101367150D01*
X139928600Y-101367150D01*
X139928600Y-101039528D01*
X150541400Y-101039528D01*
X150541400Y-101102850D01*
X150598550Y-101160000D01*
X151292200Y-101160000D01*
X151292200Y-100913550D01*
X151647800Y-100913550D01*
X151647800Y-101160000D01*
X152341450Y-101160000D01*
X152398600Y-101102850D01*
X152398600Y-101039528D01*
X152363797Y-100955508D01*
X152299491Y-100891202D01*
X152215471Y-100856400D01*
X151704950Y-100856400D01*
X151647800Y-100913550D01*
X151292200Y-100913550D01*
X151235050Y-100856400D01*
X150724529Y-100856400D01*
X150640509Y-100891202D01*
X150576203Y-100955508D01*
X150541400Y-101039528D01*
X139928600Y-101039528D01*
X139928600Y-100965000D01*
X141833600Y-100965000D01*
X141863246Y-100958997D01*
X141888221Y-100941932D01*
X141904589Y-100916495D01*
X141909799Y-100888401D01*
X141902408Y-99476697D01*
X141948509Y-99522798D01*
X142032529Y-99557600D01*
X142593050Y-99557600D01*
X142650200Y-99500450D01*
X142650200Y-98856800D01*
X143005800Y-98856800D01*
X143005800Y-99500450D01*
X143062950Y-99557600D01*
X143623471Y-99557600D01*
X143707491Y-99522798D01*
X143771797Y-99458492D01*
X143806600Y-99374472D01*
X143806600Y-98913950D01*
X144583400Y-98913950D01*
X144583400Y-99349472D01*
X144618203Y-99433492D01*
X144682509Y-99497798D01*
X144766529Y-99532600D01*
X145327050Y-99532600D01*
X145384200Y-99475450D01*
X145384200Y-98856800D01*
X145739800Y-98856800D01*
X145739800Y-99475450D01*
X145796950Y-99532600D01*
X146357471Y-99532600D01*
X146441491Y-99497798D01*
X146505797Y-99433492D01*
X146540600Y-99349472D01*
X146540600Y-98913950D01*
X146483450Y-98856800D01*
X145739800Y-98856800D01*
X145384200Y-98856800D01*
X144640550Y-98856800D01*
X144583400Y-98913950D01*
X143806600Y-98913950D01*
X143749450Y-98856800D01*
X143005800Y-98856800D01*
X142650200Y-98856800D01*
X142630200Y-98856800D01*
X142630200Y-98501200D01*
X142650200Y-98501200D01*
X142650200Y-97857550D01*
X143005800Y-97857550D01*
X143005800Y-98501200D01*
X143749450Y-98501200D01*
X143806600Y-98444050D01*
X143806600Y-98008528D01*
X144583400Y-98008528D01*
X144583400Y-98444050D01*
X144640550Y-98501200D01*
X145384200Y-98501200D01*
X145384200Y-97882550D01*
X145739800Y-97882550D01*
X145739800Y-98501200D01*
X146483450Y-98501200D01*
X146540600Y-98444050D01*
X146540600Y-98008528D01*
X146505797Y-97924508D01*
X146441491Y-97860202D01*
X146357471Y-97825400D01*
X145796950Y-97825400D01*
X145739800Y-97882550D01*
X145384200Y-97882550D01*
X145327050Y-97825400D01*
X144766529Y-97825400D01*
X144682509Y-97860202D01*
X144618203Y-97924508D01*
X144583400Y-98008528D01*
X143806600Y-98008528D01*
X143806600Y-97983528D01*
X143771797Y-97899508D01*
X143707491Y-97835202D01*
X143623471Y-97800400D01*
X143062950Y-97800400D01*
X143005800Y-97857550D01*
X142650200Y-97857550D01*
X142593050Y-97800400D01*
X142032529Y-97800400D01*
X141948509Y-97835202D01*
X141894099Y-97889612D01*
X141889677Y-97044853D01*
X145268594Y-97044853D01*
X145362755Y-97164803D01*
X145739691Y-97262181D01*
X146125199Y-97207900D01*
X146229245Y-97164803D01*
X146323406Y-97044853D01*
X145796000Y-96517447D01*
X145268594Y-97044853D01*
X141889677Y-97044853D01*
X141887703Y-96667992D01*
X141948509Y-96728798D01*
X142032529Y-96763600D01*
X142593050Y-96763600D01*
X142650200Y-96706450D01*
X142650200Y-96062800D01*
X143005800Y-96062800D01*
X143005800Y-96706450D01*
X143062950Y-96763600D01*
X143623471Y-96763600D01*
X143707491Y-96728798D01*
X143771797Y-96664492D01*
X143806600Y-96580472D01*
X143806600Y-96209691D01*
X144799819Y-96209691D01*
X144854100Y-96595199D01*
X144897197Y-96699245D01*
X145017147Y-96793406D01*
X145544553Y-96266000D01*
X146047447Y-96266000D01*
X146574853Y-96793406D01*
X146694803Y-96699245D01*
X146792181Y-96322309D01*
X146737900Y-95936801D01*
X146694803Y-95832755D01*
X146574853Y-95738594D01*
X146047447Y-96266000D01*
X145544553Y-96266000D01*
X145017147Y-95738594D01*
X144897197Y-95832755D01*
X144799819Y-96209691D01*
X143806600Y-96209691D01*
X143806600Y-96119950D01*
X143749450Y-96062800D01*
X143005800Y-96062800D01*
X142650200Y-96062800D01*
X142630200Y-96062800D01*
X142630200Y-95707200D01*
X142650200Y-95707200D01*
X142650200Y-95063550D01*
X143005800Y-95063550D01*
X143005800Y-95707200D01*
X143749450Y-95707200D01*
X143806600Y-95650050D01*
X143806600Y-95487147D01*
X145268594Y-95487147D01*
X145796000Y-96014553D01*
X146323406Y-95487147D01*
X146229245Y-95367197D01*
X145852309Y-95269819D01*
X145466801Y-95324100D01*
X145362755Y-95367197D01*
X145268594Y-95487147D01*
X143806600Y-95487147D01*
X143806600Y-95189528D01*
X143771797Y-95105508D01*
X143707491Y-95041202D01*
X143623471Y-95006400D01*
X143062950Y-95006400D01*
X143005800Y-95063550D01*
X142650200Y-95063550D01*
X142593050Y-95006400D01*
X142032529Y-95006400D01*
X141948509Y-95041202D01*
X141884400Y-95105311D01*
X141884400Y-93870689D01*
X141948509Y-93934798D01*
X142032529Y-93969600D01*
X142593050Y-93969600D01*
X142650200Y-93912450D01*
X142650200Y-93268800D01*
X143005800Y-93268800D01*
X143005800Y-93912450D01*
X143062950Y-93969600D01*
X143623471Y-93969600D01*
X143707491Y-93934798D01*
X143771797Y-93870492D01*
X143806600Y-93786472D01*
X143806600Y-93325950D01*
X143749450Y-93268800D01*
X143005800Y-93268800D01*
X142650200Y-93268800D01*
X142630200Y-93268800D01*
X142630200Y-92913200D01*
X142650200Y-92913200D01*
X142650200Y-92269550D01*
X143005800Y-92269550D01*
X143005800Y-92913200D01*
X143749450Y-92913200D01*
X143806600Y-92856050D01*
X143806600Y-92395528D01*
X143771797Y-92311508D01*
X143707491Y-92247202D01*
X143623471Y-92212400D01*
X143062950Y-92212400D01*
X143005800Y-92269550D01*
X142650200Y-92269550D01*
X142593050Y-92212400D01*
X142032529Y-92212400D01*
X141948509Y-92247202D01*
X141884400Y-92311311D01*
X141884400Y-91262200D01*
X146787260Y-91262200D01*
X146836735Y-96951800D01*
G36*
X160197800Y-91440000D02*
X160203803Y-91469646D01*
X160220868Y-91494621D01*
X160246305Y-91510989D01*
X160274000Y-91516200D01*
X163499800Y-91516200D01*
X163499800Y-101904800D01*
X156798600Y-101904800D01*
X156798600Y-101867150D01*
X156741450Y-101810000D01*
X156047800Y-101810000D01*
X156047800Y-101851922D01*
X155692200Y-101851922D01*
X155692200Y-101810000D01*
X154998550Y-101810000D01*
X154941400Y-101867150D01*
X154941400Y-101904800D01*
X154889200Y-101904800D01*
X154889200Y-101367150D01*
X154941400Y-101367150D01*
X154941400Y-101430472D01*
X154963987Y-101485000D01*
X154941400Y-101539528D01*
X154941400Y-101602850D01*
X154998550Y-101660000D01*
X155692200Y-101660000D01*
X155692200Y-101310000D01*
X156047800Y-101310000D01*
X156047800Y-101660000D01*
X156741450Y-101660000D01*
X156798600Y-101602850D01*
X156798600Y-101539528D01*
X156776013Y-101485000D01*
X156798600Y-101430472D01*
X156798600Y-101367150D01*
X156741450Y-101310000D01*
X156047800Y-101310000D01*
X155692200Y-101310000D01*
X154998550Y-101310000D01*
X154941400Y-101367150D01*
X154889200Y-101367150D01*
X154889200Y-101039528D01*
X154941400Y-101039528D01*
X154941400Y-101102850D01*
X154998550Y-101160000D01*
X155692200Y-101160000D01*
X155692200Y-100913550D01*
X156047800Y-100913550D01*
X156047800Y-101160000D01*
X156741450Y-101160000D01*
X156798600Y-101102850D01*
X156798600Y-101039528D01*
X156763797Y-100955508D01*
X156699491Y-100891202D01*
X156615471Y-100856400D01*
X156104950Y-100856400D01*
X156047800Y-100913550D01*
X155692200Y-100913550D01*
X155635050Y-100856400D01*
X155124529Y-100856400D01*
X155040509Y-100891202D01*
X154976203Y-100955508D01*
X154941400Y-101039528D01*
X154889200Y-101039528D01*
X154889200Y-100787200D01*
X159131000Y-100787200D01*
X159160646Y-100781197D01*
X159185621Y-100764132D01*
X159201989Y-100738695D01*
X159207200Y-100711000D01*
X159207200Y-96028853D01*
X161397594Y-96028853D01*
X161491755Y-96148803D01*
X161868691Y-96246181D01*
X162254199Y-96191900D01*
X162358245Y-96148803D01*
X162452406Y-96028853D01*
X161925000Y-95501447D01*
X161397594Y-96028853D01*
X159207200Y-96028853D01*
X159207200Y-95504000D01*
X159201197Y-95474354D01*
X159184882Y-95450118D01*
X158928455Y-95193691D01*
X160928819Y-95193691D01*
X160983100Y-95579199D01*
X161026197Y-95683245D01*
X161146147Y-95777406D01*
X161673553Y-95250000D01*
X162176447Y-95250000D01*
X162703853Y-95777406D01*
X162823803Y-95683245D01*
X162921181Y-95306309D01*
X162866900Y-94920801D01*
X162823803Y-94816755D01*
X162703853Y-94722594D01*
X162176447Y-95250000D01*
X161673553Y-95250000D01*
X161146147Y-94722594D01*
X161026197Y-94816755D01*
X160928819Y-95193691D01*
X158928455Y-95193691D01*
X158318200Y-94583436D01*
X158318200Y-94471147D01*
X161397594Y-94471147D01*
X161925000Y-94998553D01*
X162452406Y-94471147D01*
X162358245Y-94351197D01*
X161981309Y-94253819D01*
X161595801Y-94308100D01*
X161491755Y-94351197D01*
X161397594Y-94471147D01*
X158318200Y-94471147D01*
X158318200Y-93452950D01*
X158386400Y-93452950D01*
X158386400Y-93888472D01*
X158421203Y-93972492D01*
X158485509Y-94036798D01*
X158569529Y-94071600D01*
X159130050Y-94071600D01*
X159187200Y-94014450D01*
X159187200Y-93395800D01*
X159542800Y-93395800D01*
X159542800Y-94014450D01*
X159599950Y-94071600D01*
X160160471Y-94071600D01*
X160244491Y-94036798D01*
X160308797Y-93972492D01*
X160343600Y-93888472D01*
X160343600Y-93452950D01*
X160286450Y-93395800D01*
X159542800Y-93395800D01*
X159187200Y-93395800D01*
X158443550Y-93395800D01*
X158386400Y-93452950D01*
X158318200Y-93452950D01*
X158318200Y-92547528D01*
X158386400Y-92547528D01*
X158386400Y-92983050D01*
X158443550Y-93040200D01*
X159187200Y-93040200D01*
X159187200Y-92421550D01*
X159542800Y-92421550D01*
X159542800Y-93040200D01*
X160286450Y-93040200D01*
X160343600Y-92983050D01*
X160343600Y-92547528D01*
X160308797Y-92463508D01*
X160244491Y-92399202D01*
X160160471Y-92364400D01*
X159599950Y-92364400D01*
X159542800Y-92421550D01*
X159187200Y-92421550D01*
X159130050Y-92364400D01*
X158569529Y-92364400D01*
X158485509Y-92399202D01*
X158421203Y-92463508D01*
X158386400Y-92547528D01*
X158318200Y-92547528D01*
X158318200Y-91948000D01*
X158312750Y-91919700D01*
X158064200Y-91298325D01*
X158064200Y-90277950D01*
X158084400Y-90277950D01*
X158084400Y-90763471D01*
X158119202Y-90847491D01*
X158183508Y-90911797D01*
X158267528Y-90946600D01*
X158753050Y-90946600D01*
X158810200Y-90889450D01*
X158810200Y-90220800D01*
X159165800Y-90220800D01*
X159165800Y-90889450D01*
X159222950Y-90946600D01*
X159708472Y-90946600D01*
X159792492Y-90911797D01*
X159856798Y-90847491D01*
X159891600Y-90763471D01*
X159891600Y-90277950D01*
X159834450Y-90220800D01*
X159165800Y-90220800D01*
X158810200Y-90220800D01*
X158141550Y-90220800D01*
X158084400Y-90277950D01*
X158064200Y-90277950D01*
X158064200Y-89322529D01*
X158084400Y-89322529D01*
X158084400Y-89808050D01*
X158141550Y-89865200D01*
X158810200Y-89865200D01*
X158810200Y-89196550D01*
X159165800Y-89196550D01*
X159165800Y-89865200D01*
X159834450Y-89865200D01*
X159891600Y-89808050D01*
X159891600Y-89322529D01*
X159856798Y-89238509D01*
X159792492Y-89174203D01*
X159708472Y-89139400D01*
X159222950Y-89139400D01*
X159165800Y-89196550D01*
X158810200Y-89196550D01*
X158753050Y-89139400D01*
X158267528Y-89139400D01*
X158183508Y-89174203D01*
X158119202Y-89238509D01*
X158084400Y-89322529D01*
X158064200Y-89322529D01*
X158064200Y-88722200D01*
X160197800Y-88722200D01*
X160197800Y-91440000D01*
X160197800Y-91440000D01*
G37*
X160197800Y-91440000D02*
X160203803Y-91469646D01*
X160220868Y-91494621D01*
X160246305Y-91510989D01*
X160274000Y-91516200D01*
X163499800Y-91516200D01*
X163499800Y-101904800D01*
X156798600Y-101904800D01*
X156798600Y-101867150D01*
X156741450Y-101810000D01*
X156047800Y-101810000D01*
X156047800Y-101851922D01*
X155692200Y-101851922D01*
X155692200Y-101810000D01*
X154998550Y-101810000D01*
X154941400Y-101867150D01*
X154941400Y-101904800D01*
X154889200Y-101904800D01*
X154889200Y-101367150D01*
X154941400Y-101367150D01*
X154941400Y-101430472D01*
X154963987Y-101485000D01*
X154941400Y-101539528D01*
X154941400Y-101602850D01*
X154998550Y-101660000D01*
X155692200Y-101660000D01*
X155692200Y-101310000D01*
X156047800Y-101310000D01*
X156047800Y-101660000D01*
X156741450Y-101660000D01*
X156798600Y-101602850D01*
X156798600Y-101539528D01*
X156776013Y-101485000D01*
X156798600Y-101430472D01*
X156798600Y-101367150D01*
X156741450Y-101310000D01*
X156047800Y-101310000D01*
X155692200Y-101310000D01*
X154998550Y-101310000D01*
X154941400Y-101367150D01*
X154889200Y-101367150D01*
X154889200Y-101039528D01*
X154941400Y-101039528D01*
X154941400Y-101102850D01*
X154998550Y-101160000D01*
X155692200Y-101160000D01*
X155692200Y-100913550D01*
X156047800Y-100913550D01*
X156047800Y-101160000D01*
X156741450Y-101160000D01*
X156798600Y-101102850D01*
X156798600Y-101039528D01*
X156763797Y-100955508D01*
X156699491Y-100891202D01*
X156615471Y-100856400D01*
X156104950Y-100856400D01*
X156047800Y-100913550D01*
X155692200Y-100913550D01*
X155635050Y-100856400D01*
X155124529Y-100856400D01*
X155040509Y-100891202D01*
X154976203Y-100955508D01*
X154941400Y-101039528D01*
X154889200Y-101039528D01*
X154889200Y-100787200D01*
X159131000Y-100787200D01*
X159160646Y-100781197D01*
X159185621Y-100764132D01*
X159201989Y-100738695D01*
X159207200Y-100711000D01*
X159207200Y-96028853D01*
X161397594Y-96028853D01*
X161491755Y-96148803D01*
X161868691Y-96246181D01*
X162254199Y-96191900D01*
X162358245Y-96148803D01*
X162452406Y-96028853D01*
X161925000Y-95501447D01*
X161397594Y-96028853D01*
X159207200Y-96028853D01*
X159207200Y-95504000D01*
X159201197Y-95474354D01*
X159184882Y-95450118D01*
X158928455Y-95193691D01*
X160928819Y-95193691D01*
X160983100Y-95579199D01*
X161026197Y-95683245D01*
X161146147Y-95777406D01*
X161673553Y-95250000D01*
X162176447Y-95250000D01*
X162703853Y-95777406D01*
X162823803Y-95683245D01*
X162921181Y-95306309D01*
X162866900Y-94920801D01*
X162823803Y-94816755D01*
X162703853Y-94722594D01*
X162176447Y-95250000D01*
X161673553Y-95250000D01*
X161146147Y-94722594D01*
X161026197Y-94816755D01*
X160928819Y-95193691D01*
X158928455Y-95193691D01*
X158318200Y-94583436D01*
X158318200Y-94471147D01*
X161397594Y-94471147D01*
X161925000Y-94998553D01*
X162452406Y-94471147D01*
X162358245Y-94351197D01*
X161981309Y-94253819D01*
X161595801Y-94308100D01*
X161491755Y-94351197D01*
X161397594Y-94471147D01*
X158318200Y-94471147D01*
X158318200Y-93452950D01*
X158386400Y-93452950D01*
X158386400Y-93888472D01*
X158421203Y-93972492D01*
X158485509Y-94036798D01*
X158569529Y-94071600D01*
X159130050Y-94071600D01*
X159187200Y-94014450D01*
X159187200Y-93395800D01*
X159542800Y-93395800D01*
X159542800Y-94014450D01*
X159599950Y-94071600D01*
X160160471Y-94071600D01*
X160244491Y-94036798D01*
X160308797Y-93972492D01*
X160343600Y-93888472D01*
X160343600Y-93452950D01*
X160286450Y-93395800D01*
X159542800Y-93395800D01*
X159187200Y-93395800D01*
X158443550Y-93395800D01*
X158386400Y-93452950D01*
X158318200Y-93452950D01*
X158318200Y-92547528D01*
X158386400Y-92547528D01*
X158386400Y-92983050D01*
X158443550Y-93040200D01*
X159187200Y-93040200D01*
X159187200Y-92421550D01*
X159542800Y-92421550D01*
X159542800Y-93040200D01*
X160286450Y-93040200D01*
X160343600Y-92983050D01*
X160343600Y-92547528D01*
X160308797Y-92463508D01*
X160244491Y-92399202D01*
X160160471Y-92364400D01*
X159599950Y-92364400D01*
X159542800Y-92421550D01*
X159187200Y-92421550D01*
X159130050Y-92364400D01*
X158569529Y-92364400D01*
X158485509Y-92399202D01*
X158421203Y-92463508D01*
X158386400Y-92547528D01*
X158318200Y-92547528D01*
X158318200Y-91948000D01*
X158312750Y-91919700D01*
X158064200Y-91298325D01*
X158064200Y-90277950D01*
X158084400Y-90277950D01*
X158084400Y-90763471D01*
X158119202Y-90847491D01*
X158183508Y-90911797D01*
X158267528Y-90946600D01*
X158753050Y-90946600D01*
X158810200Y-90889450D01*
X158810200Y-90220800D01*
X159165800Y-90220800D01*
X159165800Y-90889450D01*
X159222950Y-90946600D01*
X159708472Y-90946600D01*
X159792492Y-90911797D01*
X159856798Y-90847491D01*
X159891600Y-90763471D01*
X159891600Y-90277950D01*
X159834450Y-90220800D01*
X159165800Y-90220800D01*
X158810200Y-90220800D01*
X158141550Y-90220800D01*
X158084400Y-90277950D01*
X158064200Y-90277950D01*
X158064200Y-89322529D01*
X158084400Y-89322529D01*
X158084400Y-89808050D01*
X158141550Y-89865200D01*
X158810200Y-89865200D01*
X158810200Y-89196550D01*
X159165800Y-89196550D01*
X159165800Y-89865200D01*
X159834450Y-89865200D01*
X159891600Y-89808050D01*
X159891600Y-89322529D01*
X159856798Y-89238509D01*
X159792492Y-89174203D01*
X159708472Y-89139400D01*
X159222950Y-89139400D01*
X159165800Y-89196550D01*
X158810200Y-89196550D01*
X158753050Y-89139400D01*
X158267528Y-89139400D01*
X158183508Y-89174203D01*
X158119202Y-89238509D01*
X158084400Y-89322529D01*
X158064200Y-89322529D01*
X158064200Y-88722200D01*
X160197800Y-88722200D01*
X160197800Y-91440000D01*
G36*
X145992203Y-84188308D02*
X145957400Y-84272328D01*
X145957400Y-84804222D01*
X145908513Y-84685906D01*
X145619416Y-84396304D01*
X145241499Y-84239379D01*
X144832297Y-84239022D01*
X144454106Y-84395287D01*
X144164504Y-84684384D01*
X144007579Y-85062301D01*
X144007222Y-85471503D01*
X144163487Y-85849694D01*
X144452584Y-86139296D01*
X144830501Y-86296221D01*
X145239703Y-86296578D01*
X145617894Y-86140313D01*
X145907496Y-85851216D01*
X145957400Y-85731034D01*
X145957400Y-86263272D01*
X145992203Y-86347292D01*
X146056509Y-86411598D01*
X146140529Y-86446400D01*
X146901050Y-86446400D01*
X146958200Y-86389250D01*
X146958200Y-85445600D01*
X147313800Y-85445600D01*
X147313800Y-86389250D01*
X147370950Y-86446400D01*
X148131471Y-86446400D01*
X148215491Y-86411598D01*
X148279797Y-86347292D01*
X148314600Y-86263272D01*
X148314600Y-85502750D01*
X148357400Y-85502750D01*
X148357400Y-86263272D01*
X148392203Y-86347292D01*
X148456509Y-86411598D01*
X148540529Y-86446400D01*
X149301050Y-86446400D01*
X149358200Y-86389250D01*
X149358200Y-85445600D01*
X148414550Y-85445600D01*
X148357400Y-85502750D01*
X148314600Y-85502750D01*
X148257450Y-85445600D01*
X147313800Y-85445600D01*
X146958200Y-85445600D01*
X146938200Y-85445600D01*
X146938200Y-85090000D01*
X146958200Y-85090000D01*
X146958200Y-85070000D01*
X147313800Y-85070000D01*
X147313800Y-85090000D01*
X148257450Y-85090000D01*
X148314600Y-85032850D01*
X148314600Y-84272328D01*
X148279797Y-84188308D01*
X148241689Y-84150200D01*
X148430311Y-84150200D01*
X148392203Y-84188308D01*
X148357400Y-84272328D01*
X148357400Y-85032850D01*
X148414550Y-85090000D01*
X149358200Y-85090000D01*
X149358200Y-85070000D01*
X149713800Y-85070000D01*
X149713800Y-85090000D01*
X149733800Y-85090000D01*
X149733800Y-85445600D01*
X149713800Y-85445600D01*
X149713800Y-86389250D01*
X149770950Y-86446400D01*
X150531471Y-86446400D01*
X150615491Y-86411598D01*
X150679797Y-86347292D01*
X150714600Y-86263272D01*
X150714600Y-85731378D01*
X150763487Y-85849694D01*
X151052584Y-86139296D01*
X151430501Y-86296221D01*
X151839703Y-86296578D01*
X152217894Y-86140313D01*
X152507496Y-85851216D01*
X152664421Y-85473299D01*
X152664778Y-85064097D01*
X152508513Y-84685906D01*
X152219416Y-84396304D01*
X151841499Y-84239379D01*
X151432297Y-84239022D01*
X151054106Y-84395287D01*
X150764504Y-84684384D01*
X150714600Y-84804566D01*
X150714600Y-84272328D01*
X150679797Y-84188308D01*
X150641689Y-84150200D01*
X157657800Y-84150200D01*
X157657800Y-89624647D01*
X157239447Y-90043000D01*
X157657800Y-90461353D01*
X157657800Y-91694000D01*
X157663803Y-91723646D01*
X157680118Y-91747882D01*
X157911800Y-91979564D01*
X157911800Y-94742000D01*
X157917803Y-94771646D01*
X157930145Y-94791590D01*
X158673800Y-95659188D01*
X158673800Y-100253800D01*
X154559000Y-100253800D01*
X154529354Y-100259803D01*
X154504379Y-100276868D01*
X154488011Y-100302305D01*
X154482800Y-100330000D01*
X154482800Y-103632000D01*
X154488803Y-103661646D01*
X154505868Y-103686621D01*
X154531305Y-103702989D01*
X154559000Y-103708200D01*
X155731200Y-103708200D01*
X155731200Y-105034922D01*
X155286000Y-105034922D01*
X155201286Y-105050862D01*
X155123482Y-105100928D01*
X155071285Y-105177320D01*
X155052922Y-105268000D01*
X155052922Y-106568000D01*
X155068862Y-106652714D01*
X155118928Y-106730518D01*
X155195320Y-106782715D01*
X155286000Y-106801078D01*
X156786000Y-106801078D01*
X156870714Y-106785138D01*
X156948518Y-106735072D01*
X157000715Y-106658680D01*
X157019078Y-106568000D01*
X157019078Y-105268000D01*
X157003138Y-105183286D01*
X156953072Y-105105482D01*
X156876680Y-105053285D01*
X156786000Y-105034922D01*
X156340800Y-105034922D01*
X156340800Y-103708200D01*
X157786778Y-103708200D01*
X157911826Y-108460005D01*
X157918608Y-108489482D01*
X157936323Y-108514000D01*
X157962182Y-108529693D01*
X157988000Y-108534200D01*
X158953200Y-108534200D01*
X158953200Y-109367922D01*
X157607000Y-109367922D01*
X157522286Y-109383862D01*
X157444482Y-109433928D01*
X157392285Y-109510320D01*
X157373922Y-109601000D01*
X157373922Y-111633000D01*
X157389862Y-111717714D01*
X157439928Y-111795518D01*
X157516320Y-111847715D01*
X157607000Y-111866078D01*
X159639000Y-111866078D01*
X159723714Y-111850138D01*
X159801518Y-111800072D01*
X159853715Y-111723680D01*
X159872078Y-111633000D01*
X159872078Y-109601000D01*
X159856138Y-109516286D01*
X159806072Y-109438482D01*
X159729680Y-109386285D01*
X159639000Y-109367922D01*
X159562800Y-109367922D01*
X159562800Y-108534200D01*
X161087981Y-108534200D01*
X161212600Y-116509800D01*
X143586200Y-116509800D01*
X143586200Y-110985315D01*
X154894129Y-110985315D01*
X155125574Y-111412240D01*
X155502779Y-111718097D01*
X155714688Y-111805855D01*
X155905200Y-111791063D01*
X155905200Y-110794800D01*
X156260800Y-110794800D01*
X156260800Y-111791063D01*
X156451312Y-111805855D01*
X156663221Y-111718097D01*
X157040426Y-111412240D01*
X157271871Y-110985315D01*
X157257701Y-110794800D01*
X156260800Y-110794800D01*
X155905200Y-110794800D01*
X154908299Y-110794800D01*
X154894129Y-110985315D01*
X143586200Y-110985315D01*
X143586200Y-110248685D01*
X154894129Y-110248685D01*
X154908299Y-110439200D01*
X155905200Y-110439200D01*
X155905200Y-109442937D01*
X156260800Y-109442937D01*
X156260800Y-110439200D01*
X157257701Y-110439200D01*
X157271871Y-110248685D01*
X157040426Y-109821760D01*
X156663221Y-109515903D01*
X156451312Y-109428145D01*
X156260800Y-109442937D01*
X155905200Y-109442937D01*
X155714688Y-109428145D01*
X155502779Y-109515903D01*
X155125574Y-109821760D01*
X154894129Y-110248685D01*
X143586200Y-110248685D01*
X143586200Y-107645200D01*
X149606000Y-107645200D01*
X149635646Y-107639197D01*
X149660621Y-107622132D01*
X149676989Y-107596695D01*
X149682200Y-107569000D01*
X149682200Y-106152950D01*
X152357400Y-106152950D01*
X152357400Y-106613472D01*
X152392203Y-106697492D01*
X152456509Y-106761798D01*
X152540529Y-106796600D01*
X153101050Y-106796600D01*
X153158200Y-106739450D01*
X153158200Y-106095800D01*
X153513800Y-106095800D01*
X153513800Y-106739450D01*
X153570950Y-106796600D01*
X154131471Y-106796600D01*
X154215491Y-106761798D01*
X154279797Y-106697492D01*
X154314600Y-106613472D01*
X154314600Y-106152950D01*
X154257450Y-106095800D01*
X153513800Y-106095800D01*
X153158200Y-106095800D01*
X152414550Y-106095800D01*
X152357400Y-106152950D01*
X149682200Y-106152950D01*
X149682200Y-105222528D01*
X152357400Y-105222528D01*
X152357400Y-105683050D01*
X152414550Y-105740200D01*
X153158200Y-105740200D01*
X153158200Y-105096550D01*
X153513800Y-105096550D01*
X153513800Y-105740200D01*
X154257450Y-105740200D01*
X154314600Y-105683050D01*
X154314600Y-105222528D01*
X154279797Y-105138508D01*
X154215491Y-105074202D01*
X154131471Y-105039400D01*
X153570950Y-105039400D01*
X153513800Y-105096550D01*
X153158200Y-105096550D01*
X153101050Y-105039400D01*
X152540529Y-105039400D01*
X152456509Y-105074202D01*
X152392203Y-105138508D01*
X152357400Y-105222528D01*
X149682200Y-105222528D01*
X149682200Y-104978200D01*
X150495000Y-104978200D01*
X150524646Y-104972197D01*
X150549621Y-104955132D01*
X150565989Y-104929695D01*
X150571200Y-104902000D01*
X150571200Y-103502414D01*
X150576203Y-103514492D01*
X150640509Y-103578798D01*
X150724529Y-103613600D01*
X151235050Y-103613600D01*
X151292200Y-103556450D01*
X151292200Y-103310000D01*
X151647800Y-103310000D01*
X151647800Y-103556450D01*
X151704950Y-103613600D01*
X152215471Y-103613600D01*
X152299491Y-103578798D01*
X152363797Y-103514492D01*
X152398600Y-103430472D01*
X152398600Y-103367150D01*
X152341450Y-103310000D01*
X151647800Y-103310000D01*
X151292200Y-103310000D01*
X151272200Y-103310000D01*
X151272200Y-103160000D01*
X151292200Y-103160000D01*
X151292200Y-103118078D01*
X151647800Y-103118078D01*
X151647800Y-103160000D01*
X152341450Y-103160000D01*
X152398600Y-103102850D01*
X152398600Y-103073200D01*
X152654000Y-103073200D01*
X152683646Y-103067197D01*
X152708621Y-103050132D01*
X152724989Y-103024695D01*
X152730200Y-102997000D01*
X152730200Y-100330000D01*
X152724197Y-100300354D01*
X152707132Y-100275379D01*
X152681695Y-100259011D01*
X152655693Y-100253819D01*
X147015200Y-100128475D01*
X147015200Y-98913950D01*
X147083400Y-98913950D01*
X147083400Y-99349472D01*
X147118203Y-99433492D01*
X147182509Y-99497798D01*
X147266529Y-99532600D01*
X147827050Y-99532600D01*
X147884200Y-99475450D01*
X147884200Y-98856800D01*
X148239800Y-98856800D01*
X148239800Y-99475450D01*
X148296950Y-99532600D01*
X148857471Y-99532600D01*
X148941491Y-99497798D01*
X149005797Y-99433492D01*
X149040600Y-99349472D01*
X149040600Y-98913950D01*
X148983450Y-98856800D01*
X148239800Y-98856800D01*
X147884200Y-98856800D01*
X147140550Y-98856800D01*
X147083400Y-98913950D01*
X147015200Y-98913950D01*
X147015200Y-98008528D01*
X147083400Y-98008528D01*
X147083400Y-98444050D01*
X147140550Y-98501200D01*
X147884200Y-98501200D01*
X147884200Y-97882550D01*
X148239800Y-97882550D01*
X148239800Y-98501200D01*
X148983450Y-98501200D01*
X149040600Y-98444050D01*
X149040600Y-98008528D01*
X149005797Y-97924508D01*
X148941491Y-97860202D01*
X148857471Y-97825400D01*
X148296950Y-97825400D01*
X148239800Y-97882550D01*
X147884200Y-97882550D01*
X147827050Y-97825400D01*
X147266529Y-97825400D01*
X147182509Y-97860202D01*
X147118203Y-97924508D01*
X147083400Y-98008528D01*
X147015200Y-98008528D01*
X147015200Y-97358200D01*
X147320000Y-97358200D01*
X147349646Y-97352197D01*
X147374621Y-97335132D01*
X147390989Y-97309695D01*
X147396200Y-97282000D01*
X147396200Y-96508506D01*
X155902612Y-96508506D01*
X156135085Y-96938217D01*
X156514306Y-97246255D01*
X156729494Y-97335388D01*
X156921200Y-97320699D01*
X156921200Y-96316800D01*
X157276800Y-96316800D01*
X157276800Y-97320699D01*
X157468506Y-97335388D01*
X157898217Y-97102915D01*
X158206255Y-96723694D01*
X158295388Y-96508506D01*
X158280699Y-96316800D01*
X157276800Y-96316800D01*
X156921200Y-96316800D01*
X155917301Y-96316800D01*
X155902612Y-96508506D01*
X147396200Y-96508506D01*
X147396200Y-95769494D01*
X155902612Y-95769494D01*
X155917301Y-95961200D01*
X156921200Y-95961200D01*
X156921200Y-94957301D01*
X157276800Y-94957301D01*
X157276800Y-95961200D01*
X158280699Y-95961200D01*
X158295388Y-95769494D01*
X158062915Y-95339783D01*
X157683694Y-95031745D01*
X157468506Y-94942612D01*
X157276800Y-94957301D01*
X156921200Y-94957301D01*
X156729494Y-94942612D01*
X156299783Y-95175085D01*
X155991745Y-95554306D01*
X155902612Y-95769494D01*
X147396200Y-95769494D01*
X147396200Y-93452950D01*
X155886400Y-93452950D01*
X155886400Y-93888472D01*
X155921203Y-93972492D01*
X155985509Y-94036798D01*
X156069529Y-94071600D01*
X156630050Y-94071600D01*
X156687200Y-94014450D01*
X156687200Y-93395800D01*
X157042800Y-93395800D01*
X157042800Y-94014450D01*
X157099950Y-94071600D01*
X157660471Y-94071600D01*
X157744491Y-94036798D01*
X157808797Y-93972492D01*
X157843600Y-93888472D01*
X157843600Y-93452950D01*
X157786450Y-93395800D01*
X157042800Y-93395800D01*
X156687200Y-93395800D01*
X155943550Y-93395800D01*
X155886400Y-93452950D01*
X147396200Y-93452950D01*
X147396200Y-92995564D01*
X147844236Y-92547528D01*
X155886400Y-92547528D01*
X155886400Y-92983050D01*
X155943550Y-93040200D01*
X156687200Y-93040200D01*
X156687200Y-92421550D01*
X157042800Y-92421550D01*
X157042800Y-93040200D01*
X157786450Y-93040200D01*
X157843600Y-92983050D01*
X157843600Y-92547528D01*
X157808797Y-92463508D01*
X157744491Y-92399202D01*
X157660471Y-92364400D01*
X157099950Y-92364400D01*
X157042800Y-92421550D01*
X156687200Y-92421550D01*
X156630050Y-92364400D01*
X156069529Y-92364400D01*
X155985509Y-92399202D01*
X155921203Y-92463508D01*
X155886400Y-92547528D01*
X147844236Y-92547528D01*
X149625066Y-90766698D01*
X156515749Y-90766698D01*
X156600495Y-90878846D01*
X156949856Y-90963513D01*
X157305024Y-90908040D01*
X157375505Y-90878846D01*
X157460251Y-90766698D01*
X156988000Y-90294447D01*
X156515749Y-90766698D01*
X149625066Y-90766698D01*
X150386908Y-90004856D01*
X156067487Y-90004856D01*
X156122960Y-90360024D01*
X156152154Y-90430505D01*
X156264302Y-90515251D01*
X156736553Y-90043000D01*
X156264302Y-89570749D01*
X156152154Y-89655495D01*
X156067487Y-90004856D01*
X150386908Y-90004856D01*
X150802882Y-89588882D01*
X150819599Y-89563673D01*
X150825200Y-89535000D01*
X150825200Y-89319302D01*
X156515749Y-89319302D01*
X156988000Y-89791553D01*
X157460251Y-89319302D01*
X157375505Y-89207154D01*
X157026144Y-89122487D01*
X156670976Y-89177960D01*
X156600495Y-89207154D01*
X156515749Y-89319302D01*
X150825200Y-89319302D01*
X150825200Y-88646400D01*
X151301050Y-88646400D01*
X151358200Y-88589250D01*
X151358200Y-87895600D01*
X151713800Y-87895600D01*
X151713800Y-88589250D01*
X151770950Y-88646400D01*
X152381471Y-88646400D01*
X152465491Y-88611598D01*
X152529797Y-88547292D01*
X152564600Y-88463272D01*
X152564600Y-87952750D01*
X152507450Y-87895600D01*
X151713800Y-87895600D01*
X151358200Y-87895600D01*
X151338200Y-87895600D01*
X151338200Y-87540000D01*
X151358200Y-87540000D01*
X151358200Y-86846350D01*
X151713800Y-86846350D01*
X151713800Y-87540000D01*
X152507450Y-87540000D01*
X152564600Y-87482850D01*
X152564600Y-86972328D01*
X152529797Y-86888308D01*
X152465491Y-86824002D01*
X152381471Y-86789200D01*
X151770950Y-86789200D01*
X151713800Y-86846350D01*
X151358200Y-86846350D01*
X151301050Y-86789200D01*
X150690529Y-86789200D01*
X150684252Y-86791800D01*
X147320000Y-86791800D01*
X147290354Y-86797803D01*
X147265379Y-86814868D01*
X147249011Y-86840305D01*
X147243800Y-86868000D01*
X147243800Y-87039200D01*
X147193150Y-87039200D01*
X147136000Y-87096350D01*
X147136000Y-87765000D01*
X147233800Y-87765000D01*
X147233800Y-88120600D01*
X147136000Y-88120600D01*
X147136000Y-88789250D01*
X147193150Y-88846400D01*
X147196548Y-88846400D01*
X146965148Y-89077800D01*
X143588129Y-89077800D01*
X143616255Y-87952750D01*
X144107400Y-87952750D01*
X144107400Y-88463272D01*
X144142203Y-88547292D01*
X144206509Y-88611598D01*
X144290529Y-88646400D01*
X144901050Y-88646400D01*
X144958200Y-88589250D01*
X144958200Y-87895600D01*
X145313800Y-87895600D01*
X145313800Y-88589250D01*
X145370950Y-88646400D01*
X145981471Y-88646400D01*
X146065491Y-88611598D01*
X146129797Y-88547292D01*
X146164600Y-88463272D01*
X146164600Y-88177750D01*
X146607400Y-88177750D01*
X146607400Y-88663272D01*
X146642203Y-88747292D01*
X146706509Y-88811598D01*
X146790529Y-88846400D01*
X146878850Y-88846400D01*
X146936000Y-88789250D01*
X146936000Y-88120600D01*
X146664550Y-88120600D01*
X146607400Y-88177750D01*
X146164600Y-88177750D01*
X146164600Y-87952750D01*
X146107450Y-87895600D01*
X145313800Y-87895600D01*
X144958200Y-87895600D01*
X144164550Y-87895600D01*
X144107400Y-87952750D01*
X143616255Y-87952750D01*
X143640765Y-86972328D01*
X144107400Y-86972328D01*
X144107400Y-87482850D01*
X144164550Y-87540000D01*
X144958200Y-87540000D01*
X144958200Y-86846350D01*
X145313800Y-86846350D01*
X145313800Y-87540000D01*
X146107450Y-87540000D01*
X146164600Y-87482850D01*
X146164600Y-87222328D01*
X146607400Y-87222328D01*
X146607400Y-87707850D01*
X146664550Y-87765000D01*
X146936000Y-87765000D01*
X146936000Y-87096350D01*
X146878850Y-87039200D01*
X146790529Y-87039200D01*
X146706509Y-87074002D01*
X146642203Y-87138308D01*
X146607400Y-87222328D01*
X146164600Y-87222328D01*
X146164600Y-86972328D01*
X146129797Y-86888308D01*
X146065491Y-86824002D01*
X145981471Y-86789200D01*
X145370950Y-86789200D01*
X145313800Y-86846350D01*
X144958200Y-86846350D01*
X144901050Y-86789200D01*
X144290529Y-86789200D01*
X144206509Y-86824002D01*
X144142203Y-86888308D01*
X144107400Y-86972328D01*
X143640765Y-86972328D01*
X143711319Y-84150200D01*
X146030311Y-84150200D01*
X145992203Y-84188308D01*
X145992203Y-84188308D01*
G37*
X145992203Y-84188308D02*
X145957400Y-84272328D01*
X145957400Y-84804222D01*
X145908513Y-84685906D01*
X145619416Y-84396304D01*
X145241499Y-84239379D01*
X144832297Y-84239022D01*
X144454106Y-84395287D01*
X144164504Y-84684384D01*
X144007579Y-85062301D01*
X144007222Y-85471503D01*
X144163487Y-85849694D01*
X144452584Y-86139296D01*
X144830501Y-86296221D01*
X145239703Y-86296578D01*
X145617894Y-86140313D01*
X145907496Y-85851216D01*
X145957400Y-85731034D01*
X145957400Y-86263272D01*
X145992203Y-86347292D01*
X146056509Y-86411598D01*
X146140529Y-86446400D01*
X146901050Y-86446400D01*
X146958200Y-86389250D01*
X146958200Y-85445600D01*
X147313800Y-85445600D01*
X147313800Y-86389250D01*
X147370950Y-86446400D01*
X148131471Y-86446400D01*
X148215491Y-86411598D01*
X148279797Y-86347292D01*
X148314600Y-86263272D01*
X148314600Y-85502750D01*
X148357400Y-85502750D01*
X148357400Y-86263272D01*
X148392203Y-86347292D01*
X148456509Y-86411598D01*
X148540529Y-86446400D01*
X149301050Y-86446400D01*
X149358200Y-86389250D01*
X149358200Y-85445600D01*
X148414550Y-85445600D01*
X148357400Y-85502750D01*
X148314600Y-85502750D01*
X148257450Y-85445600D01*
X147313800Y-85445600D01*
X146958200Y-85445600D01*
X146938200Y-85445600D01*
X146938200Y-85090000D01*
X146958200Y-85090000D01*
X146958200Y-85070000D01*
X147313800Y-85070000D01*
X147313800Y-85090000D01*
X148257450Y-85090000D01*
X148314600Y-85032850D01*
X148314600Y-84272328D01*
X148279797Y-84188308D01*
X148241689Y-84150200D01*
X148430311Y-84150200D01*
X148392203Y-84188308D01*
X148357400Y-84272328D01*
X148357400Y-85032850D01*
X148414550Y-85090000D01*
X149358200Y-85090000D01*
X149358200Y-85070000D01*
X149713800Y-85070000D01*
X149713800Y-85090000D01*
X149733800Y-85090000D01*
X149733800Y-85445600D01*
X149713800Y-85445600D01*
X149713800Y-86389250D01*
X149770950Y-86446400D01*
X150531471Y-86446400D01*
X150615491Y-86411598D01*
X150679797Y-86347292D01*
X150714600Y-86263272D01*
X150714600Y-85731378D01*
X150763487Y-85849694D01*
X151052584Y-86139296D01*
X151430501Y-86296221D01*
X151839703Y-86296578D01*
X152217894Y-86140313D01*
X152507496Y-85851216D01*
X152664421Y-85473299D01*
X152664778Y-85064097D01*
X152508513Y-84685906D01*
X152219416Y-84396304D01*
X151841499Y-84239379D01*
X151432297Y-84239022D01*
X151054106Y-84395287D01*
X150764504Y-84684384D01*
X150714600Y-84804566D01*
X150714600Y-84272328D01*
X150679797Y-84188308D01*
X150641689Y-84150200D01*
X157657800Y-84150200D01*
X157657800Y-89624647D01*
X157239447Y-90043000D01*
X157657800Y-90461353D01*
X157657800Y-91694000D01*
X157663803Y-91723646D01*
X157680118Y-91747882D01*
X157911800Y-91979564D01*
X157911800Y-94742000D01*
X157917803Y-94771646D01*
X157930145Y-94791590D01*
X158673800Y-95659188D01*
X158673800Y-100253800D01*
X154559000Y-100253800D01*
X154529354Y-100259803D01*
X154504379Y-100276868D01*
X154488011Y-100302305D01*
X154482800Y-100330000D01*
X154482800Y-103632000D01*
X154488803Y-103661646D01*
X154505868Y-103686621D01*
X154531305Y-103702989D01*
X154559000Y-103708200D01*
X155731200Y-103708200D01*
X155731200Y-105034922D01*
X155286000Y-105034922D01*
X155201286Y-105050862D01*
X155123482Y-105100928D01*
X155071285Y-105177320D01*
X155052922Y-105268000D01*
X155052922Y-106568000D01*
X155068862Y-106652714D01*
X155118928Y-106730518D01*
X155195320Y-106782715D01*
X155286000Y-106801078D01*
X156786000Y-106801078D01*
X156870714Y-106785138D01*
X156948518Y-106735072D01*
X157000715Y-106658680D01*
X157019078Y-106568000D01*
X157019078Y-105268000D01*
X157003138Y-105183286D01*
X156953072Y-105105482D01*
X156876680Y-105053285D01*
X156786000Y-105034922D01*
X156340800Y-105034922D01*
X156340800Y-103708200D01*
X157786778Y-103708200D01*
X157911826Y-108460005D01*
X157918608Y-108489482D01*
X157936323Y-108514000D01*
X157962182Y-108529693D01*
X157988000Y-108534200D01*
X158953200Y-108534200D01*
X158953200Y-109367922D01*
X157607000Y-109367922D01*
X157522286Y-109383862D01*
X157444482Y-109433928D01*
X157392285Y-109510320D01*
X157373922Y-109601000D01*
X157373922Y-111633000D01*
X157389862Y-111717714D01*
X157439928Y-111795518D01*
X157516320Y-111847715D01*
X157607000Y-111866078D01*
X159639000Y-111866078D01*
X159723714Y-111850138D01*
X159801518Y-111800072D01*
X159853715Y-111723680D01*
X159872078Y-111633000D01*
X159872078Y-109601000D01*
X159856138Y-109516286D01*
X159806072Y-109438482D01*
X159729680Y-109386285D01*
X159639000Y-109367922D01*
X159562800Y-109367922D01*
X159562800Y-108534200D01*
X161087981Y-108534200D01*
X161212600Y-116509800D01*
X143586200Y-116509800D01*
X143586200Y-110985315D01*
X154894129Y-110985315D01*
X155125574Y-111412240D01*
X155502779Y-111718097D01*
X155714688Y-111805855D01*
X155905200Y-111791063D01*
X155905200Y-110794800D01*
X156260800Y-110794800D01*
X156260800Y-111791063D01*
X156451312Y-111805855D01*
X156663221Y-111718097D01*
X157040426Y-111412240D01*
X157271871Y-110985315D01*
X157257701Y-110794800D01*
X156260800Y-110794800D01*
X155905200Y-110794800D01*
X154908299Y-110794800D01*
X154894129Y-110985315D01*
X143586200Y-110985315D01*
X143586200Y-110248685D01*
X154894129Y-110248685D01*
X154908299Y-110439200D01*
X155905200Y-110439200D01*
X155905200Y-109442937D01*
X156260800Y-109442937D01*
X156260800Y-110439200D01*
X157257701Y-110439200D01*
X157271871Y-110248685D01*
X157040426Y-109821760D01*
X156663221Y-109515903D01*
X156451312Y-109428145D01*
X156260800Y-109442937D01*
X155905200Y-109442937D01*
X155714688Y-109428145D01*
X155502779Y-109515903D01*
X155125574Y-109821760D01*
X154894129Y-110248685D01*
X143586200Y-110248685D01*
X143586200Y-107645200D01*
X149606000Y-107645200D01*
X149635646Y-107639197D01*
X149660621Y-107622132D01*
X149676989Y-107596695D01*
X149682200Y-107569000D01*
X149682200Y-106152950D01*
X152357400Y-106152950D01*
X152357400Y-106613472D01*
X152392203Y-106697492D01*
X152456509Y-106761798D01*
X152540529Y-106796600D01*
X153101050Y-106796600D01*
X153158200Y-106739450D01*
X153158200Y-106095800D01*
X153513800Y-106095800D01*
X153513800Y-106739450D01*
X153570950Y-106796600D01*
X154131471Y-106796600D01*
X154215491Y-106761798D01*
X154279797Y-106697492D01*
X154314600Y-106613472D01*
X154314600Y-106152950D01*
X154257450Y-106095800D01*
X153513800Y-106095800D01*
X153158200Y-106095800D01*
X152414550Y-106095800D01*
X152357400Y-106152950D01*
X149682200Y-106152950D01*
X149682200Y-105222528D01*
X152357400Y-105222528D01*
X152357400Y-105683050D01*
X152414550Y-105740200D01*
X153158200Y-105740200D01*
X153158200Y-105096550D01*
X153513800Y-105096550D01*
X153513800Y-105740200D01*
X154257450Y-105740200D01*
X154314600Y-105683050D01*
X154314600Y-105222528D01*
X154279797Y-105138508D01*
X154215491Y-105074202D01*
X154131471Y-105039400D01*
X153570950Y-105039400D01*
X153513800Y-105096550D01*
X153158200Y-105096550D01*
X153101050Y-105039400D01*
X152540529Y-105039400D01*
X152456509Y-105074202D01*
X152392203Y-105138508D01*
X152357400Y-105222528D01*
X149682200Y-105222528D01*
X149682200Y-104978200D01*
X150495000Y-104978200D01*
X150524646Y-104972197D01*
X150549621Y-104955132D01*
X150565989Y-104929695D01*
X150571200Y-104902000D01*
X150571200Y-103502414D01*
X150576203Y-103514492D01*
X150640509Y-103578798D01*
X150724529Y-103613600D01*
X151235050Y-103613600D01*
X151292200Y-103556450D01*
X151292200Y-103310000D01*
X151647800Y-103310000D01*
X151647800Y-103556450D01*
X151704950Y-103613600D01*
X152215471Y-103613600D01*
X152299491Y-103578798D01*
X152363797Y-103514492D01*
X152398600Y-103430472D01*
X152398600Y-103367150D01*
X152341450Y-103310000D01*
X151647800Y-103310000D01*
X151292200Y-103310000D01*
X151272200Y-103310000D01*
X151272200Y-103160000D01*
X151292200Y-103160000D01*
X151292200Y-103118078D01*
X151647800Y-103118078D01*
X151647800Y-103160000D01*
X152341450Y-103160000D01*
X152398600Y-103102850D01*
X152398600Y-103073200D01*
X152654000Y-103073200D01*
X152683646Y-103067197D01*
X152708621Y-103050132D01*
X152724989Y-103024695D01*
X152730200Y-102997000D01*
X152730200Y-100330000D01*
X152724197Y-100300354D01*
X152707132Y-100275379D01*
X152681695Y-100259011D01*
X152655693Y-100253819D01*
X147015200Y-100128475D01*
X147015200Y-98913950D01*
X147083400Y-98913950D01*
X147083400Y-99349472D01*
X147118203Y-99433492D01*
X147182509Y-99497798D01*
X147266529Y-99532600D01*
X147827050Y-99532600D01*
X147884200Y-99475450D01*
X147884200Y-98856800D01*
X148239800Y-98856800D01*
X148239800Y-99475450D01*
X148296950Y-99532600D01*
X148857471Y-99532600D01*
X148941491Y-99497798D01*
X149005797Y-99433492D01*
X149040600Y-99349472D01*
X149040600Y-98913950D01*
X148983450Y-98856800D01*
X148239800Y-98856800D01*
X147884200Y-98856800D01*
X147140550Y-98856800D01*
X147083400Y-98913950D01*
X147015200Y-98913950D01*
X147015200Y-98008528D01*
X147083400Y-98008528D01*
X147083400Y-98444050D01*
X147140550Y-98501200D01*
X147884200Y-98501200D01*
X147884200Y-97882550D01*
X148239800Y-97882550D01*
X148239800Y-98501200D01*
X148983450Y-98501200D01*
X149040600Y-98444050D01*
X149040600Y-98008528D01*
X149005797Y-97924508D01*
X148941491Y-97860202D01*
X148857471Y-97825400D01*
X148296950Y-97825400D01*
X148239800Y-97882550D01*
X147884200Y-97882550D01*
X147827050Y-97825400D01*
X147266529Y-97825400D01*
X147182509Y-97860202D01*
X147118203Y-97924508D01*
X147083400Y-98008528D01*
X147015200Y-98008528D01*
X147015200Y-97358200D01*
X147320000Y-97358200D01*
X147349646Y-97352197D01*
X147374621Y-97335132D01*
X147390989Y-97309695D01*
X147396200Y-97282000D01*
X147396200Y-96508506D01*
X155902612Y-96508506D01*
X156135085Y-96938217D01*
X156514306Y-97246255D01*
X156729494Y-97335388D01*
X156921200Y-97320699D01*
X156921200Y-96316800D01*
X157276800Y-96316800D01*
X157276800Y-97320699D01*
X157468506Y-97335388D01*
X157898217Y-97102915D01*
X158206255Y-96723694D01*
X158295388Y-96508506D01*
X158280699Y-96316800D01*
X157276800Y-96316800D01*
X156921200Y-96316800D01*
X155917301Y-96316800D01*
X155902612Y-96508506D01*
X147396200Y-96508506D01*
X147396200Y-95769494D01*
X155902612Y-95769494D01*
X155917301Y-95961200D01*
X156921200Y-95961200D01*
X156921200Y-94957301D01*
X157276800Y-94957301D01*
X157276800Y-95961200D01*
X158280699Y-95961200D01*
X158295388Y-95769494D01*
X158062915Y-95339783D01*
X157683694Y-95031745D01*
X157468506Y-94942612D01*
X157276800Y-94957301D01*
X156921200Y-94957301D01*
X156729494Y-94942612D01*
X156299783Y-95175085D01*
X155991745Y-95554306D01*
X155902612Y-95769494D01*
X147396200Y-95769494D01*
X147396200Y-93452950D01*
X155886400Y-93452950D01*
X155886400Y-93888472D01*
X155921203Y-93972492D01*
X155985509Y-94036798D01*
X156069529Y-94071600D01*
X156630050Y-94071600D01*
X156687200Y-94014450D01*
X156687200Y-93395800D01*
X157042800Y-93395800D01*
X157042800Y-94014450D01*
X157099950Y-94071600D01*
X157660471Y-94071600D01*
X157744491Y-94036798D01*
X157808797Y-93972492D01*
X157843600Y-93888472D01*
X157843600Y-93452950D01*
X157786450Y-93395800D01*
X157042800Y-93395800D01*
X156687200Y-93395800D01*
X155943550Y-93395800D01*
X155886400Y-93452950D01*
X147396200Y-93452950D01*
X147396200Y-92995564D01*
X147844236Y-92547528D01*
X155886400Y-92547528D01*
X155886400Y-92983050D01*
X155943550Y-93040200D01*
X156687200Y-93040200D01*
X156687200Y-92421550D01*
X157042800Y-92421550D01*
X157042800Y-93040200D01*
X157786450Y-93040200D01*
X157843600Y-92983050D01*
X157843600Y-92547528D01*
X157808797Y-92463508D01*
X157744491Y-92399202D01*
X157660471Y-92364400D01*
X157099950Y-92364400D01*
X157042800Y-92421550D01*
X156687200Y-92421550D01*
X156630050Y-92364400D01*
X156069529Y-92364400D01*
X155985509Y-92399202D01*
X155921203Y-92463508D01*
X155886400Y-92547528D01*
X147844236Y-92547528D01*
X149625066Y-90766698D01*
X156515749Y-90766698D01*
X156600495Y-90878846D01*
X156949856Y-90963513D01*
X157305024Y-90908040D01*
X157375505Y-90878846D01*
X157460251Y-90766698D01*
X156988000Y-90294447D01*
X156515749Y-90766698D01*
X149625066Y-90766698D01*
X150386908Y-90004856D01*
X156067487Y-90004856D01*
X156122960Y-90360024D01*
X156152154Y-90430505D01*
X156264302Y-90515251D01*
X156736553Y-90043000D01*
X156264302Y-89570749D01*
X156152154Y-89655495D01*
X156067487Y-90004856D01*
X150386908Y-90004856D01*
X150802882Y-89588882D01*
X150819599Y-89563673D01*
X150825200Y-89535000D01*
X150825200Y-89319302D01*
X156515749Y-89319302D01*
X156988000Y-89791553D01*
X157460251Y-89319302D01*
X157375505Y-89207154D01*
X157026144Y-89122487D01*
X156670976Y-89177960D01*
X156600495Y-89207154D01*
X156515749Y-89319302D01*
X150825200Y-89319302D01*
X150825200Y-88646400D01*
X151301050Y-88646400D01*
X151358200Y-88589250D01*
X151358200Y-87895600D01*
X151713800Y-87895600D01*
X151713800Y-88589250D01*
X151770950Y-88646400D01*
X152381471Y-88646400D01*
X152465491Y-88611598D01*
X152529797Y-88547292D01*
X152564600Y-88463272D01*
X152564600Y-87952750D01*
X152507450Y-87895600D01*
X151713800Y-87895600D01*
X151358200Y-87895600D01*
X151338200Y-87895600D01*
X151338200Y-87540000D01*
X151358200Y-87540000D01*
X151358200Y-86846350D01*
X151713800Y-86846350D01*
X151713800Y-87540000D01*
X152507450Y-87540000D01*
X152564600Y-87482850D01*
X152564600Y-86972328D01*
X152529797Y-86888308D01*
X152465491Y-86824002D01*
X152381471Y-86789200D01*
X151770950Y-86789200D01*
X151713800Y-86846350D01*
X151358200Y-86846350D01*
X151301050Y-86789200D01*
X150690529Y-86789200D01*
X150684252Y-86791800D01*
X147320000Y-86791800D01*
X147290354Y-86797803D01*
X147265379Y-86814868D01*
X147249011Y-86840305D01*
X147243800Y-86868000D01*
X147243800Y-87039200D01*
X147193150Y-87039200D01*
X147136000Y-87096350D01*
X147136000Y-87765000D01*
X147233800Y-87765000D01*
X147233800Y-88120600D01*
X147136000Y-88120600D01*
X147136000Y-88789250D01*
X147193150Y-88846400D01*
X147196548Y-88846400D01*
X146965148Y-89077800D01*
X143588129Y-89077800D01*
X143616255Y-87952750D01*
X144107400Y-87952750D01*
X144107400Y-88463272D01*
X144142203Y-88547292D01*
X144206509Y-88611598D01*
X144290529Y-88646400D01*
X144901050Y-88646400D01*
X144958200Y-88589250D01*
X144958200Y-87895600D01*
X145313800Y-87895600D01*
X145313800Y-88589250D01*
X145370950Y-88646400D01*
X145981471Y-88646400D01*
X146065491Y-88611598D01*
X146129797Y-88547292D01*
X146164600Y-88463272D01*
X146164600Y-88177750D01*
X146607400Y-88177750D01*
X146607400Y-88663272D01*
X146642203Y-88747292D01*
X146706509Y-88811598D01*
X146790529Y-88846400D01*
X146878850Y-88846400D01*
X146936000Y-88789250D01*
X146936000Y-88120600D01*
X146664550Y-88120600D01*
X146607400Y-88177750D01*
X146164600Y-88177750D01*
X146164600Y-87952750D01*
X146107450Y-87895600D01*
X145313800Y-87895600D01*
X144958200Y-87895600D01*
X144164550Y-87895600D01*
X144107400Y-87952750D01*
X143616255Y-87952750D01*
X143640765Y-86972328D01*
X144107400Y-86972328D01*
X144107400Y-87482850D01*
X144164550Y-87540000D01*
X144958200Y-87540000D01*
X144958200Y-86846350D01*
X145313800Y-86846350D01*
X145313800Y-87540000D01*
X146107450Y-87540000D01*
X146164600Y-87482850D01*
X146164600Y-87222328D01*
X146607400Y-87222328D01*
X146607400Y-87707850D01*
X146664550Y-87765000D01*
X146936000Y-87765000D01*
X146936000Y-87096350D01*
X146878850Y-87039200D01*
X146790529Y-87039200D01*
X146706509Y-87074002D01*
X146642203Y-87138308D01*
X146607400Y-87222328D01*
X146164600Y-87222328D01*
X146164600Y-86972328D01*
X146129797Y-86888308D01*
X146065491Y-86824002D01*
X145981471Y-86789200D01*
X145370950Y-86789200D01*
X145313800Y-86846350D01*
X144958200Y-86846350D01*
X144901050Y-86789200D01*
X144290529Y-86789200D01*
X144206509Y-86824002D01*
X144142203Y-86888308D01*
X144107400Y-86972328D01*
X143640765Y-86972328D01*
X143711319Y-84150200D01*
X146030311Y-84150200D01*
X145992203Y-84188308D01*
M02*
