G04 #@! TF.FileFunction,Paste,Top*
%FSLAX46Y46*%
G04 Gerber Fmt 4.6, Leading zero omitted, Abs format (unit mm)*
G04 Created by KiCad (PCBNEW 4.0.2-stable) date Tuesday, November 15, 2016 'AMt' 11:42:37 AM*
%MOMM*%
G01*
G04 APERTURE LIST*
%ADD10C,0.100000*%
%ADD11R,1.198880X1.198880*%
%ADD12R,1.500000X1.300000*%
%ADD13R,1.300000X1.500000*%
%ADD14R,1.400000X0.300000*%
%ADD15R,1.500000X1.250000*%
%ADD16R,0.400000X1.350000*%
%ADD17R,1.600000X1.400000*%
%ADD18R,1.900000X1.900000*%
G04 APERTURE END LIST*
D10*
D11*
X140809980Y-103505000D03*
X142908020Y-103505000D03*
X140809980Y-106045000D03*
X142908020Y-106045000D03*
D12*
X142828000Y-98679000D03*
X140128000Y-98679000D03*
X142828000Y-95885000D03*
X140128000Y-95885000D03*
X142828000Y-93091000D03*
X140128000Y-93091000D03*
X145335000Y-103505000D03*
X148035000Y-103505000D03*
X145335000Y-106045000D03*
X148035000Y-106045000D03*
D13*
X159258000Y-104441000D03*
X159258000Y-107141000D03*
D12*
X156036000Y-105918000D03*
X153336000Y-105918000D03*
D14*
X151470000Y-101235000D03*
X151470000Y-101735000D03*
X151470000Y-102235000D03*
X151470000Y-102735000D03*
X151470000Y-103235000D03*
X155870000Y-103235000D03*
X155870000Y-102735000D03*
X155870000Y-102235000D03*
X155870000Y-101735000D03*
X155870000Y-101235000D03*
D15*
X145562000Y-98679000D03*
X148062000Y-98679000D03*
X159365000Y-93218000D03*
X156865000Y-93218000D03*
D16*
X148336000Y-87942800D03*
X147686000Y-87942800D03*
X147036000Y-87942800D03*
X148986000Y-87942800D03*
X149636000Y-87942800D03*
D17*
X151536000Y-87717800D03*
X145136000Y-87717800D03*
D18*
X149536000Y-85267800D03*
X147136000Y-85267800D03*
M02*
