G04 #@! TF.FileFunction,Legend,Top*
%FSLAX46Y46*%
G04 Gerber Fmt 4.6, Leading zero omitted, Abs format (unit mm)*
G04 Created by KiCad (PCBNEW 4.0.2-stable) date Tuesday, November 15, 2016 'AMt' 11:42:37 AM*
%MOMM*%
G01*
G04 APERTURE LIST*
%ADD10C,0.100000*%
%ADD11C,0.150000*%
%ADD12C,3.200000*%
%ADD13R,1.198880X1.198880*%
%ADD14R,1.500000X1.300000*%
%ADD15R,1.300000X1.500000*%
%ADD16R,1.400000X0.300000*%
%ADD17R,2.032000X2.032000*%
%ADD18O,2.032000X2.032000*%
%ADD19R,1.350000X1.350000*%
%ADD20C,1.350000*%
%ADD21C,1.998980*%
%ADD22R,1.500000X1.250000*%
%ADD23C,1.500000*%
%ADD24R,0.400000X1.350000*%
%ADD25R,1.600000X1.400000*%
%ADD26R,1.900000X1.900000*%
%ADD27C,1.600000*%
G04 APERTURE END LIST*
D10*
D11*
X143459000Y-102755000D02*
X140759000Y-102755000D01*
X143459000Y-104255000D02*
X140759000Y-104255000D01*
X141959000Y-103355000D02*
X141959000Y-103605000D01*
X141959000Y-103605000D02*
X142109000Y-103455000D01*
X142209000Y-103855000D02*
X142209000Y-103155000D01*
X141859000Y-103505000D02*
X141509000Y-103505000D01*
X142209000Y-103505000D02*
X141859000Y-103855000D01*
X141859000Y-103855000D02*
X141859000Y-103155000D01*
X141859000Y-103155000D02*
X142209000Y-103505000D01*
X143459000Y-105295000D02*
X140759000Y-105295000D01*
X143459000Y-106795000D02*
X140759000Y-106795000D01*
X141959000Y-105895000D02*
X141959000Y-106145000D01*
X141959000Y-106145000D02*
X142109000Y-105995000D01*
X142209000Y-106395000D02*
X142209000Y-105695000D01*
X141859000Y-106045000D02*
X141509000Y-106045000D01*
X142209000Y-106045000D02*
X141859000Y-106395000D01*
X141859000Y-106395000D02*
X141859000Y-105695000D01*
X141859000Y-105695000D02*
X142209000Y-106045000D01*
X140878000Y-97804000D02*
X142078000Y-97804000D01*
X142078000Y-99554000D02*
X140878000Y-99554000D01*
X140878000Y-95010000D02*
X142078000Y-95010000D01*
X142078000Y-96760000D02*
X140878000Y-96760000D01*
X140878000Y-92216000D02*
X142078000Y-92216000D01*
X142078000Y-93966000D02*
X140878000Y-93966000D01*
X147285000Y-104380000D02*
X146085000Y-104380000D01*
X146085000Y-102630000D02*
X147285000Y-102630000D01*
X147285000Y-106920000D02*
X146085000Y-106920000D01*
X146085000Y-105170000D02*
X147285000Y-105170000D01*
X158383000Y-106391000D02*
X158383000Y-105191000D01*
X160133000Y-105191000D02*
X160133000Y-106391000D01*
X154086000Y-105043000D02*
X155286000Y-105043000D01*
X155286000Y-106793000D02*
X154086000Y-106793000D01*
X151995000Y-100560000D02*
X151995000Y-100860000D01*
X155345000Y-100560000D02*
X155345000Y-100860000D01*
X155345000Y-103910000D02*
X155345000Y-103610000D01*
X151995000Y-103910000D02*
X151995000Y-103610000D01*
X151995000Y-100560000D02*
X155345000Y-100560000D01*
X151995000Y-103910000D02*
X155345000Y-103910000D01*
X151995000Y-100860000D02*
X150770000Y-100860000D01*
X157353000Y-111887000D02*
X154813000Y-111887000D01*
X160173000Y-112167000D02*
X158623000Y-112167000D01*
X157353000Y-111887000D02*
X157353000Y-109347000D01*
X158623000Y-109067000D02*
X160173000Y-109067000D01*
X160173000Y-109067000D02*
X160173000Y-112167000D01*
X157353000Y-109347000D02*
X154813000Y-109347000D01*
X154813000Y-109347000D02*
X154813000Y-111887000D01*
X159793077Y-97037026D02*
X163385179Y-100629128D01*
X163385179Y-100629128D02*
X161589128Y-102425179D01*
X161589128Y-102425179D02*
X157997026Y-98833077D01*
X157997026Y-98833077D02*
X159793077Y-97037026D01*
X158895051Y-97935051D02*
X157997026Y-97037026D01*
X162487154Y-101527154D02*
X163385179Y-102425179D01*
X147312000Y-97829000D02*
X146312000Y-97829000D01*
X146312000Y-99529000D02*
X147312000Y-99529000D01*
X157615000Y-94068000D02*
X158615000Y-94068000D01*
X158615000Y-92368000D02*
X157615000Y-92368000D01*
X140295524Y-102179381D02*
X140295524Y-101179381D01*
X140533619Y-101179381D01*
X140676477Y-101227000D01*
X140771715Y-101322238D01*
X140819334Y-101417476D01*
X140866953Y-101607952D01*
X140866953Y-101750810D01*
X140819334Y-101941286D01*
X140771715Y-102036524D01*
X140676477Y-102131762D01*
X140533619Y-102179381D01*
X140295524Y-102179381D01*
X141819334Y-102179381D02*
X141247905Y-102179381D01*
X141533619Y-102179381D02*
X141533619Y-101179381D01*
X141438381Y-101322238D01*
X141343143Y-101417476D01*
X141247905Y-101465095D01*
X142438381Y-101179381D02*
X142533620Y-101179381D01*
X142628858Y-101227000D01*
X142676477Y-101274619D01*
X142724096Y-101369857D01*
X142771715Y-101560333D01*
X142771715Y-101798429D01*
X142724096Y-101988905D01*
X142676477Y-102084143D01*
X142628858Y-102131762D01*
X142533620Y-102179381D01*
X142438381Y-102179381D01*
X142343143Y-102131762D01*
X142295524Y-102084143D01*
X142247905Y-101988905D01*
X142200286Y-101798429D01*
X142200286Y-101560333D01*
X142247905Y-101369857D01*
X142295524Y-101274619D01*
X142343143Y-101227000D01*
X142438381Y-101179381D01*
X143724096Y-102179381D02*
X143152667Y-102179381D01*
X143438381Y-102179381D02*
X143438381Y-101179381D01*
X143343143Y-101322238D01*
X143247905Y-101417476D01*
X143152667Y-101465095D01*
X140422524Y-108402381D02*
X140422524Y-107402381D01*
X140660619Y-107402381D01*
X140803477Y-107450000D01*
X140898715Y-107545238D01*
X140946334Y-107640476D01*
X140993953Y-107830952D01*
X140993953Y-107973810D01*
X140946334Y-108164286D01*
X140898715Y-108259524D01*
X140803477Y-108354762D01*
X140660619Y-108402381D01*
X140422524Y-108402381D01*
X141946334Y-108402381D02*
X141374905Y-108402381D01*
X141660619Y-108402381D02*
X141660619Y-107402381D01*
X141565381Y-107545238D01*
X141470143Y-107640476D01*
X141374905Y-107688095D01*
X142565381Y-107402381D02*
X142660620Y-107402381D01*
X142755858Y-107450000D01*
X142803477Y-107497619D01*
X142851096Y-107592857D01*
X142898715Y-107783333D01*
X142898715Y-108021429D01*
X142851096Y-108211905D01*
X142803477Y-108307143D01*
X142755858Y-108354762D01*
X142660620Y-108402381D01*
X142565381Y-108402381D01*
X142470143Y-108354762D01*
X142422524Y-108307143D01*
X142374905Y-108211905D01*
X142327286Y-108021429D01*
X142327286Y-107783333D01*
X142374905Y-107592857D01*
X142422524Y-107497619D01*
X142470143Y-107450000D01*
X142565381Y-107402381D01*
X143279667Y-107497619D02*
X143327286Y-107450000D01*
X143422524Y-107402381D01*
X143660620Y-107402381D01*
X143755858Y-107450000D01*
X143803477Y-107497619D01*
X143851096Y-107592857D01*
X143851096Y-107688095D01*
X143803477Y-107830952D01*
X143232048Y-108402381D01*
X143851096Y-108402381D01*
X136167953Y-99131381D02*
X135834619Y-98655190D01*
X135596524Y-99131381D02*
X135596524Y-98131381D01*
X135977477Y-98131381D01*
X136072715Y-98179000D01*
X136120334Y-98226619D01*
X136167953Y-98321857D01*
X136167953Y-98464714D01*
X136120334Y-98559952D01*
X136072715Y-98607571D01*
X135977477Y-98655190D01*
X135596524Y-98655190D01*
X137120334Y-99131381D02*
X136548905Y-99131381D01*
X136834619Y-99131381D02*
X136834619Y-98131381D01*
X136739381Y-98274238D01*
X136644143Y-98369476D01*
X136548905Y-98417095D01*
X137739381Y-98131381D02*
X137834620Y-98131381D01*
X137929858Y-98179000D01*
X137977477Y-98226619D01*
X138025096Y-98321857D01*
X138072715Y-98512333D01*
X138072715Y-98750429D01*
X138025096Y-98940905D01*
X137977477Y-99036143D01*
X137929858Y-99083762D01*
X137834620Y-99131381D01*
X137739381Y-99131381D01*
X137644143Y-99083762D01*
X137596524Y-99036143D01*
X137548905Y-98940905D01*
X137501286Y-98750429D01*
X137501286Y-98512333D01*
X137548905Y-98321857D01*
X137596524Y-98226619D01*
X137644143Y-98179000D01*
X137739381Y-98131381D01*
X139025096Y-99131381D02*
X138453667Y-99131381D01*
X138739381Y-99131381D02*
X138739381Y-98131381D01*
X138644143Y-98274238D01*
X138548905Y-98369476D01*
X138453667Y-98417095D01*
X136040953Y-96337381D02*
X135707619Y-95861190D01*
X135469524Y-96337381D02*
X135469524Y-95337381D01*
X135850477Y-95337381D01*
X135945715Y-95385000D01*
X135993334Y-95432619D01*
X136040953Y-95527857D01*
X136040953Y-95670714D01*
X135993334Y-95765952D01*
X135945715Y-95813571D01*
X135850477Y-95861190D01*
X135469524Y-95861190D01*
X136993334Y-96337381D02*
X136421905Y-96337381D01*
X136707619Y-96337381D02*
X136707619Y-95337381D01*
X136612381Y-95480238D01*
X136517143Y-95575476D01*
X136421905Y-95623095D01*
X137612381Y-95337381D02*
X137707620Y-95337381D01*
X137802858Y-95385000D01*
X137850477Y-95432619D01*
X137898096Y-95527857D01*
X137945715Y-95718333D01*
X137945715Y-95956429D01*
X137898096Y-96146905D01*
X137850477Y-96242143D01*
X137802858Y-96289762D01*
X137707620Y-96337381D01*
X137612381Y-96337381D01*
X137517143Y-96289762D01*
X137469524Y-96242143D01*
X137421905Y-96146905D01*
X137374286Y-95956429D01*
X137374286Y-95718333D01*
X137421905Y-95527857D01*
X137469524Y-95432619D01*
X137517143Y-95385000D01*
X137612381Y-95337381D01*
X138326667Y-95432619D02*
X138374286Y-95385000D01*
X138469524Y-95337381D01*
X138707620Y-95337381D01*
X138802858Y-95385000D01*
X138850477Y-95432619D01*
X138898096Y-95527857D01*
X138898096Y-95623095D01*
X138850477Y-95765952D01*
X138279048Y-96337381D01*
X138898096Y-96337381D01*
X136040953Y-93543381D02*
X135707619Y-93067190D01*
X135469524Y-93543381D02*
X135469524Y-92543381D01*
X135850477Y-92543381D01*
X135945715Y-92591000D01*
X135993334Y-92638619D01*
X136040953Y-92733857D01*
X136040953Y-92876714D01*
X135993334Y-92971952D01*
X135945715Y-93019571D01*
X135850477Y-93067190D01*
X135469524Y-93067190D01*
X136993334Y-93543381D02*
X136421905Y-93543381D01*
X136707619Y-93543381D02*
X136707619Y-92543381D01*
X136612381Y-92686238D01*
X136517143Y-92781476D01*
X136421905Y-92829095D01*
X137612381Y-92543381D02*
X137707620Y-92543381D01*
X137802858Y-92591000D01*
X137850477Y-92638619D01*
X137898096Y-92733857D01*
X137945715Y-92924333D01*
X137945715Y-93162429D01*
X137898096Y-93352905D01*
X137850477Y-93448143D01*
X137802858Y-93495762D01*
X137707620Y-93543381D01*
X137612381Y-93543381D01*
X137517143Y-93495762D01*
X137469524Y-93448143D01*
X137421905Y-93352905D01*
X137374286Y-93162429D01*
X137374286Y-92924333D01*
X137421905Y-92733857D01*
X137469524Y-92638619D01*
X137517143Y-92591000D01*
X137612381Y-92543381D01*
X138279048Y-92543381D02*
X138898096Y-92543381D01*
X138564762Y-92924333D01*
X138707620Y-92924333D01*
X138802858Y-92971952D01*
X138850477Y-93019571D01*
X138898096Y-93114810D01*
X138898096Y-93352905D01*
X138850477Y-93448143D01*
X138802858Y-93495762D01*
X138707620Y-93543381D01*
X138421905Y-93543381D01*
X138326667Y-93495762D01*
X138279048Y-93448143D01*
X145565953Y-101857381D02*
X145232619Y-101381190D01*
X144994524Y-101857381D02*
X144994524Y-100857381D01*
X145375477Y-100857381D01*
X145470715Y-100905000D01*
X145518334Y-100952619D01*
X145565953Y-101047857D01*
X145565953Y-101190714D01*
X145518334Y-101285952D01*
X145470715Y-101333571D01*
X145375477Y-101381190D01*
X144994524Y-101381190D01*
X146518334Y-101857381D02*
X145946905Y-101857381D01*
X146232619Y-101857381D02*
X146232619Y-100857381D01*
X146137381Y-101000238D01*
X146042143Y-101095476D01*
X145946905Y-101143095D01*
X147137381Y-100857381D02*
X147232620Y-100857381D01*
X147327858Y-100905000D01*
X147375477Y-100952619D01*
X147423096Y-101047857D01*
X147470715Y-101238333D01*
X147470715Y-101476429D01*
X147423096Y-101666905D01*
X147375477Y-101762143D01*
X147327858Y-101809762D01*
X147232620Y-101857381D01*
X147137381Y-101857381D01*
X147042143Y-101809762D01*
X146994524Y-101762143D01*
X146946905Y-101666905D01*
X146899286Y-101476429D01*
X146899286Y-101238333D01*
X146946905Y-101047857D01*
X146994524Y-100952619D01*
X147042143Y-100905000D01*
X147137381Y-100857381D01*
X148327858Y-101190714D02*
X148327858Y-101857381D01*
X148089762Y-100809762D02*
X147851667Y-101524048D01*
X148470715Y-101524048D01*
X145692953Y-108529381D02*
X145359619Y-108053190D01*
X145121524Y-108529381D02*
X145121524Y-107529381D01*
X145502477Y-107529381D01*
X145597715Y-107577000D01*
X145645334Y-107624619D01*
X145692953Y-107719857D01*
X145692953Y-107862714D01*
X145645334Y-107957952D01*
X145597715Y-108005571D01*
X145502477Y-108053190D01*
X145121524Y-108053190D01*
X146645334Y-108529381D02*
X146073905Y-108529381D01*
X146359619Y-108529381D02*
X146359619Y-107529381D01*
X146264381Y-107672238D01*
X146169143Y-107767476D01*
X146073905Y-107815095D01*
X147264381Y-107529381D02*
X147359620Y-107529381D01*
X147454858Y-107577000D01*
X147502477Y-107624619D01*
X147550096Y-107719857D01*
X147597715Y-107910333D01*
X147597715Y-108148429D01*
X147550096Y-108338905D01*
X147502477Y-108434143D01*
X147454858Y-108481762D01*
X147359620Y-108529381D01*
X147264381Y-108529381D01*
X147169143Y-108481762D01*
X147121524Y-108434143D01*
X147073905Y-108338905D01*
X147026286Y-108148429D01*
X147026286Y-107910333D01*
X147073905Y-107719857D01*
X147121524Y-107624619D01*
X147169143Y-107577000D01*
X147264381Y-107529381D01*
X148502477Y-107529381D02*
X148026286Y-107529381D01*
X147978667Y-108005571D01*
X148026286Y-107957952D01*
X148121524Y-107910333D01*
X148359620Y-107910333D01*
X148454858Y-107957952D01*
X148502477Y-108005571D01*
X148550096Y-108100810D01*
X148550096Y-108338905D01*
X148502477Y-108434143D01*
X148454858Y-108481762D01*
X148359620Y-108529381D01*
X148121524Y-108529381D01*
X148026286Y-108481762D01*
X147978667Y-108434143D01*
X161615381Y-106910047D02*
X161139190Y-107243381D01*
X161615381Y-107481476D02*
X160615381Y-107481476D01*
X160615381Y-107100523D01*
X160663000Y-107005285D01*
X160710619Y-106957666D01*
X160805857Y-106910047D01*
X160948714Y-106910047D01*
X161043952Y-106957666D01*
X161091571Y-107005285D01*
X161139190Y-107100523D01*
X161139190Y-107481476D01*
X161615381Y-105957666D02*
X161615381Y-106529095D01*
X161615381Y-106243381D02*
X160615381Y-106243381D01*
X160758238Y-106338619D01*
X160853476Y-106433857D01*
X160901095Y-106529095D01*
X160615381Y-105338619D02*
X160615381Y-105243380D01*
X160663000Y-105148142D01*
X160710619Y-105100523D01*
X160805857Y-105052904D01*
X160996333Y-105005285D01*
X161234429Y-105005285D01*
X161424905Y-105052904D01*
X161520143Y-105100523D01*
X161567762Y-105148142D01*
X161615381Y-105243380D01*
X161615381Y-105338619D01*
X161567762Y-105433857D01*
X161520143Y-105481476D01*
X161424905Y-105529095D01*
X161234429Y-105576714D01*
X160996333Y-105576714D01*
X160805857Y-105529095D01*
X160710619Y-105481476D01*
X160663000Y-105433857D01*
X160615381Y-105338619D01*
X160615381Y-104671952D02*
X160615381Y-104005285D01*
X161615381Y-104433857D01*
X153566953Y-108470381D02*
X153233619Y-107994190D01*
X152995524Y-108470381D02*
X152995524Y-107470381D01*
X153376477Y-107470381D01*
X153471715Y-107518000D01*
X153519334Y-107565619D01*
X153566953Y-107660857D01*
X153566953Y-107803714D01*
X153519334Y-107898952D01*
X153471715Y-107946571D01*
X153376477Y-107994190D01*
X152995524Y-107994190D01*
X154519334Y-108470381D02*
X153947905Y-108470381D01*
X154233619Y-108470381D02*
X154233619Y-107470381D01*
X154138381Y-107613238D01*
X154043143Y-107708476D01*
X153947905Y-107756095D01*
X155138381Y-107470381D02*
X155233620Y-107470381D01*
X155328858Y-107518000D01*
X155376477Y-107565619D01*
X155424096Y-107660857D01*
X155471715Y-107851333D01*
X155471715Y-108089429D01*
X155424096Y-108279905D01*
X155376477Y-108375143D01*
X155328858Y-108422762D01*
X155233620Y-108470381D01*
X155138381Y-108470381D01*
X155043143Y-108422762D01*
X154995524Y-108375143D01*
X154947905Y-108279905D01*
X154900286Y-108089429D01*
X154900286Y-107851333D01*
X154947905Y-107660857D01*
X154995524Y-107565619D01*
X155043143Y-107518000D01*
X155138381Y-107470381D01*
X156043143Y-107898952D02*
X155947905Y-107851333D01*
X155900286Y-107803714D01*
X155852667Y-107708476D01*
X155852667Y-107660857D01*
X155900286Y-107565619D01*
X155947905Y-107518000D01*
X156043143Y-107470381D01*
X156233620Y-107470381D01*
X156328858Y-107518000D01*
X156376477Y-107565619D01*
X156424096Y-107660857D01*
X156424096Y-107708476D01*
X156376477Y-107803714D01*
X156328858Y-107851333D01*
X156233620Y-107898952D01*
X156043143Y-107898952D01*
X155947905Y-107946571D01*
X155900286Y-107994190D01*
X155852667Y-108089429D01*
X155852667Y-108279905D01*
X155900286Y-108375143D01*
X155947905Y-108422762D01*
X156043143Y-108470381D01*
X156233620Y-108470381D01*
X156328858Y-108422762D01*
X156376477Y-108375143D01*
X156424096Y-108279905D01*
X156424096Y-108089429D01*
X156376477Y-107994190D01*
X156328858Y-107946571D01*
X156233620Y-107898952D01*
X157186381Y-103187286D02*
X157995905Y-103187286D01*
X158091143Y-103139667D01*
X158138762Y-103092048D01*
X158186381Y-102996810D01*
X158186381Y-102806333D01*
X158138762Y-102711095D01*
X158091143Y-102663476D01*
X157995905Y-102615857D01*
X157186381Y-102615857D01*
X158186381Y-101615857D02*
X158186381Y-102187286D01*
X158186381Y-101901572D02*
X157186381Y-101901572D01*
X157329238Y-101996810D01*
X157424476Y-102092048D01*
X157472095Y-102187286D01*
X157186381Y-100996810D02*
X157186381Y-100901571D01*
X157234000Y-100806333D01*
X157281619Y-100758714D01*
X157376857Y-100711095D01*
X157567333Y-100663476D01*
X157805429Y-100663476D01*
X157995905Y-100711095D01*
X158091143Y-100758714D01*
X158138762Y-100806333D01*
X158186381Y-100901571D01*
X158186381Y-100996810D01*
X158138762Y-101092048D01*
X158091143Y-101139667D01*
X157995905Y-101187286D01*
X157805429Y-101234905D01*
X157567333Y-101234905D01*
X157376857Y-101187286D01*
X157281619Y-101139667D01*
X157234000Y-101092048D01*
X157186381Y-100996810D01*
X158186381Y-99711095D02*
X158186381Y-100282524D01*
X158186381Y-99996810D02*
X157186381Y-99996810D01*
X157329238Y-100092048D01*
X157424476Y-100187286D01*
X157472095Y-100282524D01*
X155916524Y-113990381D02*
X155916524Y-112990381D01*
X156297477Y-112990381D01*
X156392715Y-113038000D01*
X156440334Y-113085619D01*
X156487953Y-113180857D01*
X156487953Y-113323714D01*
X156440334Y-113418952D01*
X156392715Y-113466571D01*
X156297477Y-113514190D01*
X155916524Y-113514190D01*
X157440334Y-113990381D02*
X156868905Y-113990381D01*
X157154619Y-113990381D02*
X157154619Y-112990381D01*
X157059381Y-113133238D01*
X156964143Y-113228476D01*
X156868905Y-113276095D01*
X158059381Y-112990381D02*
X158154620Y-112990381D01*
X158249858Y-113038000D01*
X158297477Y-113085619D01*
X158345096Y-113180857D01*
X158392715Y-113371333D01*
X158392715Y-113609429D01*
X158345096Y-113799905D01*
X158297477Y-113895143D01*
X158249858Y-113942762D01*
X158154620Y-113990381D01*
X158059381Y-113990381D01*
X157964143Y-113942762D01*
X157916524Y-113895143D01*
X157868905Y-113799905D01*
X157821286Y-113609429D01*
X157821286Y-113371333D01*
X157868905Y-113180857D01*
X157916524Y-113085619D01*
X157964143Y-113038000D01*
X158059381Y-112990381D01*
X158773667Y-113085619D02*
X158821286Y-113038000D01*
X158916524Y-112990381D01*
X159154620Y-112990381D01*
X159249858Y-113038000D01*
X159297477Y-113085619D01*
X159345096Y-113180857D01*
X159345096Y-113276095D01*
X159297477Y-113418952D01*
X158726048Y-113990381D01*
X159345096Y-113990381D01*
X156373724Y-87752181D02*
X156373724Y-86752181D01*
X156754677Y-86752181D01*
X156849915Y-86799800D01*
X156897534Y-86847419D01*
X156945153Y-86942657D01*
X156945153Y-87085514D01*
X156897534Y-87180752D01*
X156849915Y-87228371D01*
X156754677Y-87275990D01*
X156373724Y-87275990D01*
X157897534Y-87752181D02*
X157326105Y-87752181D01*
X157611819Y-87752181D02*
X157611819Y-86752181D01*
X157516581Y-86895038D01*
X157421343Y-86990276D01*
X157326105Y-87037895D01*
X158516581Y-86752181D02*
X158611820Y-86752181D01*
X158707058Y-86799800D01*
X158754677Y-86847419D01*
X158802296Y-86942657D01*
X158849915Y-87133133D01*
X158849915Y-87371229D01*
X158802296Y-87561705D01*
X158754677Y-87656943D01*
X158707058Y-87704562D01*
X158611820Y-87752181D01*
X158516581Y-87752181D01*
X158421343Y-87704562D01*
X158373724Y-87656943D01*
X158326105Y-87561705D01*
X158278486Y-87371229D01*
X158278486Y-87133133D01*
X158326105Y-86942657D01*
X158373724Y-86847419D01*
X158421343Y-86799800D01*
X158516581Y-86752181D01*
X159183248Y-86752181D02*
X159802296Y-86752181D01*
X159468962Y-87133133D01*
X159611820Y-87133133D01*
X159707058Y-87180752D01*
X159754677Y-87228371D01*
X159802296Y-87323610D01*
X159802296Y-87561705D01*
X159754677Y-87656943D01*
X159707058Y-87704562D01*
X159611820Y-87752181D01*
X159326105Y-87752181D01*
X159230867Y-87704562D01*
X159183248Y-87656943D01*
X154311433Y-97572596D02*
X154412448Y-97000175D01*
X153907371Y-97168535D02*
X154614478Y-96461428D01*
X154883853Y-96730802D01*
X154917524Y-96831817D01*
X154917524Y-96899161D01*
X154883853Y-97000176D01*
X154782837Y-97101191D01*
X154681822Y-97134863D01*
X154614479Y-97134863D01*
X154513464Y-97101191D01*
X154244089Y-96831817D01*
X154984868Y-98246031D02*
X154580806Y-97841970D01*
X154782837Y-98044000D02*
X155489943Y-97336893D01*
X155321585Y-97370565D01*
X155186898Y-97370565D01*
X155085883Y-97336893D01*
X155658303Y-98919466D02*
X155254241Y-98515405D01*
X155456272Y-98717435D02*
X156163378Y-98010328D01*
X155995020Y-98044000D01*
X155860333Y-98044000D01*
X155759318Y-98010328D01*
X156803142Y-98650092D02*
X156870486Y-98717436D01*
X156904158Y-98818451D01*
X156904158Y-98885794D01*
X156870486Y-98986810D01*
X156769471Y-99155168D01*
X156601112Y-99323527D01*
X156432753Y-99424543D01*
X156331738Y-99458214D01*
X156264394Y-99458214D01*
X156163379Y-99424543D01*
X156096035Y-99357198D01*
X156062363Y-99256183D01*
X156062363Y-99188840D01*
X156096035Y-99087825D01*
X156197050Y-98919466D01*
X156365410Y-98751107D01*
X156533768Y-98650092D01*
X156634783Y-98616420D01*
X156702127Y-98616420D01*
X156803142Y-98650092D01*
X150137953Y-98909143D02*
X150090334Y-98956762D01*
X149947477Y-99004381D01*
X149852239Y-99004381D01*
X149709381Y-98956762D01*
X149614143Y-98861524D01*
X149566524Y-98766286D01*
X149518905Y-98575810D01*
X149518905Y-98432952D01*
X149566524Y-98242476D01*
X149614143Y-98147238D01*
X149709381Y-98052000D01*
X149852239Y-98004381D01*
X149947477Y-98004381D01*
X150090334Y-98052000D01*
X150137953Y-98099619D01*
X151090334Y-99004381D02*
X150518905Y-99004381D01*
X150804619Y-99004381D02*
X150804619Y-98004381D01*
X150709381Y-98147238D01*
X150614143Y-98242476D01*
X150518905Y-98290095D01*
X151709381Y-98004381D02*
X151804620Y-98004381D01*
X151899858Y-98052000D01*
X151947477Y-98099619D01*
X151995096Y-98194857D01*
X152042715Y-98385333D01*
X152042715Y-98623429D01*
X151995096Y-98813905D01*
X151947477Y-98909143D01*
X151899858Y-98956762D01*
X151804620Y-99004381D01*
X151709381Y-99004381D01*
X151614143Y-98956762D01*
X151566524Y-98909143D01*
X151518905Y-98813905D01*
X151471286Y-98623429D01*
X151471286Y-98385333D01*
X151518905Y-98194857D01*
X151566524Y-98099619D01*
X151614143Y-98052000D01*
X151709381Y-98004381D01*
X152995096Y-99004381D02*
X152423667Y-99004381D01*
X152709381Y-99004381D02*
X152709381Y-98004381D01*
X152614143Y-98147238D01*
X152518905Y-98242476D01*
X152423667Y-98290095D01*
X161313953Y-93473543D02*
X161266334Y-93521162D01*
X161123477Y-93568781D01*
X161028239Y-93568781D01*
X160885381Y-93521162D01*
X160790143Y-93425924D01*
X160742524Y-93330686D01*
X160694905Y-93140210D01*
X160694905Y-92997352D01*
X160742524Y-92806876D01*
X160790143Y-92711638D01*
X160885381Y-92616400D01*
X161028239Y-92568781D01*
X161123477Y-92568781D01*
X161266334Y-92616400D01*
X161313953Y-92664019D01*
X162266334Y-93568781D02*
X161694905Y-93568781D01*
X161980619Y-93568781D02*
X161980619Y-92568781D01*
X161885381Y-92711638D01*
X161790143Y-92806876D01*
X161694905Y-92854495D01*
X162885381Y-92568781D02*
X162980620Y-92568781D01*
X163075858Y-92616400D01*
X163123477Y-92664019D01*
X163171096Y-92759257D01*
X163218715Y-92949733D01*
X163218715Y-93187829D01*
X163171096Y-93378305D01*
X163123477Y-93473543D01*
X163075858Y-93521162D01*
X162980620Y-93568781D01*
X162885381Y-93568781D01*
X162790143Y-93521162D01*
X162742524Y-93473543D01*
X162694905Y-93378305D01*
X162647286Y-93187829D01*
X162647286Y-92949733D01*
X162694905Y-92759257D01*
X162742524Y-92664019D01*
X162790143Y-92616400D01*
X162885381Y-92568781D01*
X163599667Y-92664019D02*
X163647286Y-92616400D01*
X163742524Y-92568781D01*
X163980620Y-92568781D01*
X164075858Y-92616400D01*
X164123477Y-92664019D01*
X164171096Y-92759257D01*
X164171096Y-92854495D01*
X164123477Y-92997352D01*
X163552048Y-93568781D01*
X164171096Y-93568781D01*
X144954857Y-93686381D02*
X145192952Y-94686381D01*
X145383429Y-93972095D01*
X145573905Y-94686381D01*
X145812000Y-93686381D01*
X146716762Y-94686381D02*
X146145333Y-94686381D01*
X146431047Y-94686381D02*
X146431047Y-93686381D01*
X146335809Y-93829238D01*
X146240571Y-93924476D01*
X146145333Y-93972095D01*
X147335809Y-93686381D02*
X147431048Y-93686381D01*
X147526286Y-93734000D01*
X147573905Y-93781619D01*
X147621524Y-93876857D01*
X147669143Y-94067333D01*
X147669143Y-94305429D01*
X147621524Y-94495905D01*
X147573905Y-94591143D01*
X147526286Y-94638762D01*
X147431048Y-94686381D01*
X147335809Y-94686381D01*
X147240571Y-94638762D01*
X147192952Y-94591143D01*
X147145333Y-94495905D01*
X147097714Y-94305429D01*
X147097714Y-94067333D01*
X147145333Y-93876857D01*
X147192952Y-93781619D01*
X147240571Y-93734000D01*
X147335809Y-93686381D01*
X148621524Y-94686381D02*
X148050095Y-94686381D01*
X148335809Y-94686381D02*
X148335809Y-93686381D01*
X148240571Y-93829238D01*
X148145333Y-93924476D01*
X148050095Y-93972095D01*
X164552381Y-97742143D02*
X165552381Y-97504048D01*
X164838095Y-97313571D01*
X165552381Y-97123095D01*
X164552381Y-96885000D01*
X165552381Y-95980238D02*
X165552381Y-96551667D01*
X165552381Y-96265953D02*
X164552381Y-96265953D01*
X164695238Y-96361191D01*
X164790476Y-96456429D01*
X164838095Y-96551667D01*
X164552381Y-95361191D02*
X164552381Y-95265952D01*
X164600000Y-95170714D01*
X164647619Y-95123095D01*
X164742857Y-95075476D01*
X164933333Y-95027857D01*
X165171429Y-95027857D01*
X165361905Y-95075476D01*
X165457143Y-95123095D01*
X165504762Y-95170714D01*
X165552381Y-95265952D01*
X165552381Y-95361191D01*
X165504762Y-95456429D01*
X165457143Y-95504048D01*
X165361905Y-95551667D01*
X165171429Y-95599286D01*
X164933333Y-95599286D01*
X164742857Y-95551667D01*
X164647619Y-95504048D01*
X164600000Y-95456429D01*
X164552381Y-95361191D01*
X164647619Y-94646905D02*
X164600000Y-94599286D01*
X164552381Y-94504048D01*
X164552381Y-94265952D01*
X164600000Y-94170714D01*
X164647619Y-94123095D01*
X164742857Y-94075476D01*
X164838095Y-94075476D01*
X164980952Y-94123095D01*
X165552381Y-94694524D01*
X165552381Y-94075476D01*
X163115857Y-108164381D02*
X163353952Y-109164381D01*
X163544429Y-108450095D01*
X163734905Y-109164381D01*
X163973000Y-108164381D01*
X164877762Y-109164381D02*
X164306333Y-109164381D01*
X164592047Y-109164381D02*
X164592047Y-108164381D01*
X164496809Y-108307238D01*
X164401571Y-108402476D01*
X164306333Y-108450095D01*
X165496809Y-108164381D02*
X165592048Y-108164381D01*
X165687286Y-108212000D01*
X165734905Y-108259619D01*
X165782524Y-108354857D01*
X165830143Y-108545333D01*
X165830143Y-108783429D01*
X165782524Y-108973905D01*
X165734905Y-109069143D01*
X165687286Y-109116762D01*
X165592048Y-109164381D01*
X165496809Y-109164381D01*
X165401571Y-109116762D01*
X165353952Y-109069143D01*
X165306333Y-108973905D01*
X165258714Y-108783429D01*
X165258714Y-108545333D01*
X165306333Y-108354857D01*
X165353952Y-108259619D01*
X165401571Y-108212000D01*
X165496809Y-108164381D01*
X166163476Y-108164381D02*
X166782524Y-108164381D01*
X166449190Y-108545333D01*
X166592048Y-108545333D01*
X166687286Y-108592952D01*
X166734905Y-108640571D01*
X166782524Y-108735810D01*
X166782524Y-108973905D01*
X166734905Y-109069143D01*
X166687286Y-109116762D01*
X166592048Y-109164381D01*
X166306333Y-109164381D01*
X166211095Y-109116762D01*
X166163476Y-109069143D01*
X149795124Y-90444581D02*
X149795124Y-89444581D01*
X150176077Y-89444581D01*
X150271315Y-89492200D01*
X150318934Y-89539819D01*
X150366553Y-89635057D01*
X150366553Y-89777914D01*
X150318934Y-89873152D01*
X150271315Y-89920771D01*
X150176077Y-89968390D01*
X149795124Y-89968390D01*
X151318934Y-90444581D02*
X150747505Y-90444581D01*
X151033219Y-90444581D02*
X151033219Y-89444581D01*
X150937981Y-89587438D01*
X150842743Y-89682676D01*
X150747505Y-89730295D01*
X151937981Y-89444581D02*
X152033220Y-89444581D01*
X152128458Y-89492200D01*
X152176077Y-89539819D01*
X152223696Y-89635057D01*
X152271315Y-89825533D01*
X152271315Y-90063629D01*
X152223696Y-90254105D01*
X152176077Y-90349343D01*
X152128458Y-90396962D01*
X152033220Y-90444581D01*
X151937981Y-90444581D01*
X151842743Y-90396962D01*
X151795124Y-90349343D01*
X151747505Y-90254105D01*
X151699886Y-90063629D01*
X151699886Y-89825533D01*
X151747505Y-89635057D01*
X151795124Y-89539819D01*
X151842743Y-89492200D01*
X151937981Y-89444581D01*
X153223696Y-90444581D02*
X152652267Y-90444581D01*
X152937981Y-90444581D02*
X152937981Y-89444581D01*
X152842743Y-89587438D01*
X152747505Y-89682676D01*
X152652267Y-89730295D01*
%LPC*%
D12*
X164846000Y-114300000D03*
X138938000Y-114300000D03*
X139065000Y-87630000D03*
D13*
X140809980Y-103505000D03*
X142908020Y-103505000D03*
X140809980Y-106045000D03*
X142908020Y-106045000D03*
D14*
X142828000Y-98679000D03*
X140128000Y-98679000D03*
X142828000Y-95885000D03*
X140128000Y-95885000D03*
X142828000Y-93091000D03*
X140128000Y-93091000D03*
X145335000Y-103505000D03*
X148035000Y-103505000D03*
X145335000Y-106045000D03*
X148035000Y-106045000D03*
D15*
X159258000Y-104441000D03*
X159258000Y-107141000D03*
D14*
X156036000Y-105918000D03*
X153336000Y-105918000D03*
D16*
X151470000Y-101235000D03*
X151470000Y-101735000D03*
X151470000Y-102235000D03*
X151470000Y-102735000D03*
X151470000Y-103235000D03*
X155870000Y-103235000D03*
X155870000Y-102735000D03*
X155870000Y-102235000D03*
X155870000Y-101735000D03*
X155870000Y-101235000D03*
D17*
X158623000Y-110617000D03*
D18*
X156083000Y-110617000D03*
D19*
X158988000Y-90043000D03*
D20*
X156988000Y-90043000D03*
D21*
X157099000Y-96139000D03*
X164283205Y-103323205D03*
D22*
X145562000Y-98679000D03*
X148062000Y-98679000D03*
X159365000Y-93218000D03*
X156865000Y-93218000D03*
D12*
X165100000Y-87630000D03*
D23*
X145796000Y-96266000D03*
X161925000Y-95250000D03*
X164846000Y-106680000D03*
D24*
X148336000Y-87942800D03*
X147686000Y-87942800D03*
X147036000Y-87942800D03*
X148986000Y-87942800D03*
X149636000Y-87942800D03*
D25*
X151536000Y-87717800D03*
X145136000Y-87717800D03*
D26*
X149536000Y-85267800D03*
X147136000Y-85267800D03*
D27*
X151636000Y-85267800D03*
X145036000Y-85267800D03*
M02*
