G04 #@! TF.FileFunction,Soldermask,Top*
%FSLAX46Y46*%
G04 Gerber Fmt 4.6, Leading zero omitted, Abs format (unit mm)*
G04 Created by KiCad (PCBNEW 4.0.2-stable) date Monday, October 31, 2016 'PMt' 01:42:05 PM*
%MOMM*%
G01*
G04 APERTURE LIST*
%ADD10C,0.100000*%
%ADD11C,3.600000*%
%ADD12R,1.598880X1.598880*%
%ADD13R,1.900000X1.700000*%
%ADD14R,1.700000X1.900000*%
%ADD15R,1.800000X0.700000*%
%ADD16R,2.432000X2.432000*%
%ADD17O,2.432000X2.432000*%
%ADD18R,1.750000X1.750000*%
%ADD19C,1.750000*%
%ADD20C,2.398980*%
%ADD21R,1.900000X1.650000*%
%ADD22C,1.900000*%
%ADD23R,0.800000X1.750000*%
%ADD24R,2.000000X1.800000*%
%ADD25R,2.300000X2.300000*%
%ADD26C,2.000000*%
G04 APERTURE END LIST*
D10*
D11*
X164846000Y-114300000D03*
X138938000Y-114300000D03*
X139065000Y-87630000D03*
D12*
X140809980Y-103505000D03*
X142908020Y-103505000D03*
X140809980Y-106045000D03*
X142908020Y-106045000D03*
D13*
X142828000Y-98679000D03*
X140128000Y-98679000D03*
X142828000Y-95885000D03*
X140128000Y-95885000D03*
X142828000Y-93091000D03*
X140128000Y-93091000D03*
X145335000Y-103505000D03*
X148035000Y-103505000D03*
X145335000Y-106045000D03*
X148035000Y-106045000D03*
D14*
X159258000Y-104441000D03*
X159258000Y-107141000D03*
D13*
X156036000Y-105918000D03*
X153336000Y-105918000D03*
D15*
X151470000Y-101235000D03*
X151470000Y-101735000D03*
X151470000Y-102235000D03*
X151470000Y-102735000D03*
X151470000Y-103235000D03*
X155870000Y-103235000D03*
X155870000Y-102735000D03*
X155870000Y-102235000D03*
X155870000Y-101735000D03*
X155870000Y-101235000D03*
D16*
X158623000Y-110617000D03*
D17*
X156083000Y-110617000D03*
D18*
X158988000Y-90043000D03*
D19*
X156988000Y-90043000D03*
D20*
X157099000Y-96139000D03*
X164283205Y-103323205D03*
D21*
X145562000Y-98679000D03*
X148062000Y-98679000D03*
X159365000Y-93218000D03*
X156865000Y-93218000D03*
D11*
X165100000Y-87630000D03*
D22*
X145796000Y-96266000D03*
X161925000Y-95250000D03*
X164846000Y-106680000D03*
D23*
X148336000Y-87942800D03*
X147686000Y-87942800D03*
X147036000Y-87942800D03*
X148986000Y-87942800D03*
X149636000Y-87942800D03*
D24*
X151536000Y-87717800D03*
X145136000Y-87717800D03*
D25*
X149536000Y-85267800D03*
X147136000Y-85267800D03*
D26*
X151636000Y-85267800D03*
X145036000Y-85267800D03*
M02*
